<svg xmlns="http://www.w3.org/2000/svg" width="512" height="512" viewBox="0 0 512 512" version="1.1"><path d="" stroke="none" fill="#080404" fill-rule="evenodd"/><path d="M 22.822 112.324 C 7.603 118.742, -0.625 131.636, 0.173 147.818 C 0.938 163.318, -7.476 153.940, 120.292 281.708 C 249.996 411.412, 238.767 401.500, 256 401.500 C 273.233 401.500, 262.004 411.412, 391.708 281.708 C 497.469 175.947, 506.109 167.056, 508.519 161.500 C 509.951 158.200, 511.545 154.719, 512.061 153.764 C 513.110 151.824, 513.376 136.290, 512.343 137.324 C 511.982 137.685, 510.695 135.542, 509.484 132.562 C 503.422 117.647, 490.125 109.273, 473.988 110.207 C 458.887 111.081, 466.016 104.768, 355.250 215.366 L 256 314.467 156.750 215.282 C 44.912 103.517, 53.353 110.920, 37 110.268 C 29.796 109.981, 27.635 110.294, 22.822 112.324 M 0.349 146 C 0.349 150.675, 0.522 152.588, 0.732 150.250 C 0.943 147.912, 0.943 144.088, 0.732 141.750 C 0.522 139.412, 0.349 141.325, 0.349 146" stroke="none" fill="#040404" fill-rule="evenodd"/></svg>