<?xml version="1.0" encoding="UTF-8"?>
<svg version="1.1" xmlns="http://www.w3.org/2000/svg" width="481" height="600">
<path d="M0 0 C2.96509636 1.33594243 5.05360991 2.80163129 7.35296345 5.09290123 C7.99900573 5.73187792 8.64504801 6.37085461 9.31066734 7.02919424 C10.01174163 7.73268361 10.71281592 8.43617299 11.43513489 9.16098022 C12.56225491 10.28024523 12.56225491 10.28024523 13.71214503 11.42212164 C16.23583213 13.93077284 18.75228563 16.4465563 21.26879883 18.96240234 C23.07355058 20.75953529 24.87870561 22.55626331 26.68423462 24.35261536 C31.59168477 29.23809211 36.49252825 34.1301403 41.39153123 39.02408552 C44.44906877 42.07836648 47.50823589 45.13101157 50.56775475 48.18330765 C59.03548589 56.63147848 67.50163844 65.08122207 75.96104908 73.53772545 C76.77282499 74.34922 76.77282499 74.34922 77.60100041 75.17710838 C78.69812056 76.27386228 79.79523943 77.37061745 80.89235703 78.46737389 C81.70928898 79.28403163 81.70928898 79.28403163 82.54272461 80.1171875 C83.36064882 80.93484089 83.36064882 80.93484089 84.19509675 81.76901253 C93.04190107 90.61227096 101.90039713 99.44371626 110.7640845 108.2700495 C119.86002846 117.32796572 128.94663734 126.39515667 138.02373904 135.4719559 C143.12219534 140.56982657 148.22456645 145.66363741 153.33713722 150.74735641 C158.14118244 155.52441518 162.93230589 160.31405898 167.71481705 165.11269188 C169.47661128 166.87631179 171.24272713 168.63562614 173.01333809 170.39039421 C175.42048251 172.77729955 177.81189117 175.17891026 180.19978333 177.58505249 C180.91201123 178.28408042 181.62423913 178.98310836 182.35804969 179.70331895 C183.30755501 180.66960723 183.30755501 180.66960723 184.27624226 181.65541649 C185.10742525 182.48537779 185.10742525 182.48537779 185.95539981 183.33210599 C187 185 187 185 186.85947728 186.99672258 C185.86674163 189.31059982 184.75357849 190.61915906 182.97212124 192.39702225 C182.32221861 193.05289802 181.67231599 193.70877379 181.00271934 194.38452458 C179.92151403 195.45262211 179.92151403 195.45262211 178.81846619 196.54229736 C178.05807102 197.3052558 177.29767586 198.06821424 176.51423842 198.85429263 C173.95399566 201.4194929 171.38314719 203.97379557 168.81225586 206.52832031 C166.97897521 208.36075512 165.14635416 210.19385005 163.31434631 212.02755737 C159.3637307 215.97974691 155.40765442 219.92640153 151.44782829 223.86936188 C145.72258081 229.57024009 140.00562399 235.27937303 134.29066414 240.99056205 C125.01856239 250.25609607 115.73977934 259.5149092 106.45678711 268.76953125 C97.43862747 277.76015866 88.42362048 286.75392797 79.4128418 295.75195312 C78.85752334 296.30648341 78.30220489 296.86101369 77.7300586 297.43234792 C74.94424043 300.21425102 72.15848419 302.99621612 69.37275875 305.77821207 C46.25810025 328.86176462 23.1325967 351.93442359 0 375 C-3.54700061 373.32694088 -5.88807262 371.38154437 -8.69262695 368.61376953 C-9.61650711 367.70587677 -10.54038727 366.79798401 -11.49226379 365.86257935 C-12.49141351 364.86980379 -13.49007458 363.87653626 -14.48828125 362.8828125 C-15.51621596 361.86384611 -16.54422712 360.84495684 -17.5723114 359.82614136 C-19.72193717 357.69298013 -21.86715258 355.55548653 -24.01000977 353.41552734 C-26.76021097 350.67072848 -29.52623026 347.94247635 -32.29641438 345.2178669 C-34.42288906 343.12107825 -36.53807743 341.01318128 -38.65025902 338.90200424 C-39.66570331 337.89077376 -40.68528095 336.88367663 -41.70897865 335.88080215 C-43.13581727 334.48071566 -44.54554203 333.06325184 -45.9543457 331.64501953 C-46.76168655 330.84274933 -47.5690274 330.04047913 -48.40083313 329.21389771 C-50 327 -50 327 -49.92778397 325.21201515 C-48.56762618 321.96913778 -46.22206867 319.82002781 -43.75462341 317.39385986 C-43.20248942 316.8391626 -42.65035543 316.28446533 -42.0814901 315.71295905 C-40.22601885 313.85253889 -38.36001404 312.00305686 -36.49389648 310.15332031 C-35.16307242 308.82334227 -33.83290822 307.49270366 -32.50335693 306.16145325 C-28.88831841 302.54555241 -25.26409098 298.93898914 -21.63817859 295.33399677 C-17.85183231 291.56637787 -14.07395472 287.79028704 -10.29518127 284.01507568 C-3.13655665 276.86578309 4.02968243 269.72417355 11.19866937 262.5852735 C19.35921514 254.45823564 27.51126511 246.32269872 35.66260254 238.18642664 C52.4322799 221.44812457 69.21263068 204.72055686 86 188 C84.40476175 184.0574745 81.68131155 181.40697568 78.71029663 178.4697876 C78.16547532 177.92325743 77.620654 177.37672727 77.05932295 176.81363559 C75.23225694 174.98327496 73.39813375 173.16015491 71.56396484 171.33691406 C70.25291214 170.02642547 68.94229962 168.71549638 67.63209534 167.40415955 C64.07274259 163.84423231 60.50725126 160.29051087 56.94064283 156.73785496 C53.21480448 153.02450796 49.49461844 149.30550717 45.77383423 145.58709717 C38.72658107 138.54606347 31.67424457 131.5101441 24.62007678 124.47603869 C16.58964264 116.46794906 8.56487787 108.45418858 0.54058909 100.43994188 C-15.96663093 83.9536344 -32.48097346 67.47447692 -49 51 C-47.30208605 47.38738857 -45.30257579 45.06031603 -42.45849609 42.23144531 C-41.77043129 41.54294243 -41.77043129 41.54294243 -41.06846619 40.8405304 C-39.5581509 39.33160325 -38.04088612 37.82987546 -36.5234375 36.328125 C-35.4721083 35.28052776 -34.42122115 34.23248672 -33.37075806 33.184021 C-30.60998984 30.4308748 -27.84326751 27.68378873 -25.07525635 24.93792725 C-22.24967072 22.13283084 -19.42976555 19.32203679 -16.609375 16.51171875 C-11.07845626 11.00222468 -5.54123411 5.49912123 0 0 Z " fill="#FFFFFF" transform="translate(241,126)"/>
</svg>
