<?xml version="1.0" encoding="UTF-8"?>
<svg version="1.1" xmlns="http://www.w3.org/2000/svg" width="249" height="250">
<path d="M0 0 C16.77629801 13.24794962 27.6092699 30.41298816 31.625 51.5625 C32.04003353 56.0098593 32.10299191 60.41036796 32.0625 64.875 C32.05420166 66.06053467 32.04590332 67.24606934 32.03735352 68.4675293 C31.62126154 90.08210048 22.57446613 107.880053 8 123.6875 C-10.13942901 140.92893747 -31.3152003 146.24327074 -55.73828125 145.87109375 C-76.27228397 145.17731909 -95.29220664 134.73147133 -109.37109375 119.9765625 C-122.64378162 103.9872426 -130.00234626 86.18241847 -129.8125 65.25 C-129.80420166 64.06446533 -129.79590332 62.87893066 -129.78735352 61.6574707 C-129.37126154 40.04289952 -120.32446613 22.244947 -105.75 6.4375 C-76.73493402 -21.14117658 -32.17690224 -23.41606437 0 0 Z M-67.25 26.6875 C-68.97335249 29.55975415 -68.83816775 31.24109327 -68.375 34.5625 C-66.60087671 37.19211328 -64.38282349 39.30061868 -62.1015625 41.4921875 C-61.46262054 42.12738312 -60.82367859 42.76257874 -60.16537476 43.41702271 C-58.81546093 44.75351541 -57.45838191 46.08280447 -56.09472656 47.40527344 C-54.00047483 49.43703933 -51.92849219 51.48954765 -49.859375 53.546875 C-48.5455114 54.84240516 -47.2304476 56.13671951 -45.9140625 57.4296875 C-45.29004547 58.04520477 -44.66602844 58.66072205 -44.02310181 59.29489136 C-41.20036904 62.46937144 -41.20036904 62.46937144 -37.375 63.5625 C-37.375 64.5525 -37.375 65.5425 -37.375 66.5625 C-37.90512695 66.77100586 -38.43525391 66.97951172 -38.98144531 67.19433594 C-42.34589236 69.1174654 -44.93049801 71.75263082 -47.671875 74.453125 C-48.26550842 75.03535828 -48.85914185 75.61759155 -49.47076416 76.21746826 C-50.72077297 77.44862424 -51.96792832 78.68268323 -53.21240234 79.91943359 C-55.11857298 81.80613862 -57.04499121 83.67045144 -58.97265625 85.53515625 C-60.18620922 86.73565294 -61.39849299 87.93743428 -62.609375 89.140625 C-63.18741882 89.69397522 -63.76546265 90.24732544 -64.36102295 90.81744385 C-67.00443763 93.49092829 -68.30993257 95.06630555 -68.80566406 98.84667969 C-68.55371214 101.52945449 -68.55371214 101.52945449 -67.25 103.4375 C-64.29615717 105.2098057 -62.810042 105.11815771 -59.375 104.5625 C-56.2396548 102.32886375 -53.63271818 99.61239244 -50.94921875 96.86328125 C-50.16102249 96.076082 -49.37282623 95.28888275 -48.56074524 94.47782898 C-46.89875197 92.81115761 -45.24413468 91.137103 -43.59643555 89.45629883 C-41.07185657 86.88453146 -38.52169531 84.34043902 -35.96679688 81.79882812 C-34.35518001 80.17605751 -32.74510062 78.55175824 -31.13671875 76.92578125 C-30.37324631 76.16413162 -29.60977386 75.40248199 -28.82316589 74.61775208 C-27.77120781 73.53719795 -27.77120781 73.53719795 -26.69799805 72.43481445 C-26.07877975 71.80638138 -25.45956146 71.1779483 -24.82157898 70.5304718 C-23.05282731 68.12420609 -22.50037689 66.54768403 -22.375 63.5625 C-23.51705505 61.4863663 -23.51705505 61.4863663 -25.37280273 59.70898438 C-26.02376923 59.0208667 -26.67473572 58.33274902 -27.34542847 57.6237793 C-28.01518707 56.94355713 -28.68494568 56.26333496 -29.375 55.5625 C-30.2427153 54.64174683 -30.2427153 54.64174683 -31.12796021 53.70239258 C-34.82043218 49.78930933 -38.60922781 45.96827868 -42.39086914 42.14160156 C-43.76334517 40.74735059 -45.12950986 39.34686054 -46.48950195 37.94042969 C-48.46959913 35.893609 -50.46852806 33.86701282 -52.47265625 31.84375 C-53.37758568 30.89707458 -53.37758568 30.89707458 -54.30079651 29.93127441 C-57.87262823 26.36789591 -57.87262823 26.36789591 -62.68920898 25.09960938 C-65.34463942 25.39069687 -65.34463942 25.39069687 -67.25 26.6875 Z " fill="#474747" transform="translate(177.375,60.4375)"/>
</svg>
