<?xml version="1.0" encoding="UTF-8"?>
<svg version="1.1" xmlns="http://www.w3.org/2000/svg" width="1600" height="1600">
<path d="M0 0 C7.68919652 6.32222825 14.8182746 13.27587808 21.3125 20.8203125 C25.16680282 25.26410929 29.30500161 29.3800463 33.5 33.5 C38.26857774 38.18327224 42.84975966 42.91966352 47.20898438 47.98632812 C50.47191 51.65489554 53.99848712 55.06112599 57.5 58.5 C62.26857774 63.18327224 66.84975966 67.91966352 71.20898438 72.98632812 C74.47191 76.65489554 77.99848712 80.06112599 81.5 83.5 C86.26857774 88.18327224 90.84975966 92.91966352 95.20898438 97.98632812 C98.47191 101.65489554 101.99848712 105.06112599 105.5 108.5 C110.27880802 113.1933195 114.87155094 117.93991978 119.24023438 123.01757812 C122.33394006 126.50271827 125.67436478 129.73807426 129 133 C132.95867373 136.88283707 136.85058338 140.76340662 140.46875 144.96875 C144.26142048 149.37203182 148.35573206 153.42986924 152.5 157.5 C157.26857774 162.18327224 161.84975966 166.91966352 166.20898438 171.98632812 C169.47191 175.65489554 172.99848712 179.06112599 176.5 182.5 C181.26857774 187.18327224 185.84975966 191.91966352 190.20898438 196.98632812 C193.47191 200.65489554 196.99848712 204.06112599 200.5 207.5 C205.26857774 212.18327224 209.84975966 216.91966352 214.20898438 221.98632812 C217.47191 225.65489554 220.99848712 229.06112599 224.5 232.5 C229.26857774 237.18327224 233.84975966 241.91966352 238.20898438 246.98632812 C241.47191 250.65489554 244.99848712 254.06112599 248.5 257.5 C253.26857774 262.18327224 257.84975966 266.91966352 262.20898438 271.98632812 C265.47191 275.65489554 268.99848712 279.06112599 272.5 282.5 C277.26857774 287.18327224 281.84975966 291.91966352 286.20898438 296.98632812 C289.47191 300.65489554 292.99848712 304.06112599 296.5 307.5 C300.6311302 311.55722805 304.71452821 315.6002395 308.4921875 319.9921875 C312.31323963 324.43369635 316.44739162 328.52120096 320.625 332.625 C325.33097225 337.24870001 329.88179427 341.84003472 334 347 C332.41063081 350.74950631 330.06596186 353.33678561 327.3125 356.3125 C326.83844727 356.82522461 326.36439453 357.33794922 325.87597656 357.86621094 C321.17995814 362.89830224 316.30651969 367.75371917 311.3918457 372.5715332 C308.3264681 375.59317275 305.38628291 378.65851341 302.578125 381.921875 C298.10257557 387.10950064 293.20143889 391.84688739 288.31640625 396.64453125 C284.92081439 400.00328124 281.61582231 403.37852424 278.5 407 C274.05564748 412.16560744 269.17492912 416.87292293 264.31640625 421.64453125 C260.92081439 425.00328124 257.61582231 428.37852424 254.5 432 C250.05564748 437.16560744 245.17492912 441.87292293 240.31640625 446.64453125 C236.92081439 450.00328124 233.61582231 453.37852424 230.5 457 C226.05564748 462.16560744 221.17492912 466.87292293 216.31640625 471.64453125 C212.92081439 475.00328124 209.61582231 478.37852424 206.5 482 C202.05564748 487.16560744 197.17492912 491.87292293 192.31640625 496.64453125 C188.9311829 499.99302523 185.63554742 503.35660669 182.53125 506.96875 C177.88053801 512.37420611 172.75310504 517.293088 167.671875 522.2890625 C163.5234873 526.39511971 159.57700023 530.57810169 155.7734375 535.00390625 C151.84285935 539.42797108 147.536629 543.49980444 143.31640625 547.64453125 C139.92081439 551.00328124 136.61582231 554.37852424 133.5 558 C129.05564748 563.16560744 124.17492912 567.87292293 119.31640625 572.64453125 C115.92081439 576.00328124 112.61582231 579.37852424 109.5 583 C105.05564748 588.16560744 100.17492912 592.87292293 95.31640625 597.64453125 C91.92081439 601.00328124 88.61582231 604.37852424 85.5 608 C81.05564748 613.16560744 76.17492912 617.87292293 71.31640625 622.64453125 C67.92081439 626.00328124 64.61582231 629.37852424 61.5 633 C57.05564748 638.16560744 52.17492912 642.87292293 47.31640625 647.64453125 C43.92081439 651.00328124 40.61582231 654.37852424 37.5 658 C33.05564748 663.16560744 28.17492912 667.87292293 23.31640625 672.64453125 C19.22165511 676.69485471 15.32797035 680.83525616 11.57177734 685.20117188 C9.50094811 687.57114233 7.30455988 689.79243335 5.0625 692 C4.29035156 692.763125 3.51820313 693.52625 2.72265625 694.3125 C1.86994141 695.1478125 1.86994141 695.1478125 1 696 C-2.81271791 692.82273508 -6.45516471 689.600001 -9.9375 686.0625 C-12.39739252 683.56519467 -14.88452188 681.19813088 -17.5625 678.9375 C-22.43107191 674.76306112 -26.88246599 670.16949499 -31.36938477 665.59350586 C-34.47413771 662.44612661 -37.61820363 659.41716982 -40.96875 656.53125 C-45.91227222 652.26860087 -50.4321549 647.61799832 -55 642.9609375 C-58.94055413 638.974205 -62.97487419 635.18372813 -67.23828125 631.54296875 C-68.89815811 630.08919634 -70.45933981 628.57858414 -72 627 C-70.71345975 624.19831936 -69.3426178 622.06459347 -67.234375 619.8203125 C-66.68080322 619.22806885 -66.12723145 618.6358252 -65.55688477 618.02563477 C-64.96061279 617.39842529 -64.36434082 616.77121582 -63.75 616.125 C-63.1324585 615.46878662 -62.51491699 614.81257324 -61.87866211 614.13647461 C-56.98212332 608.96236409 -51.97618832 603.90171868 -46.88378906 598.92041016 C-43.99056332 596.07312239 -41.24004652 593.16587825 -38.58984375 590.08984375 C-34.30417321 585.12958242 -29.63782979 580.58729665 -24.9609375 576 C-21.69334698 572.77025802 -18.52847667 569.51488375 -15.53125 566.03125 C-11.07439395 560.85685023 -6.1855361 556.13749431 -1.31640625 551.35546875 C2.07918561 547.99671876 5.38417769 544.62147576 8.5 541 C12.94435252 535.83439256 17.82507088 531.12707707 22.68359375 526.35546875 C26.07918561 522.99671876 29.38417769 519.62147576 32.5 516 C36.94435252 510.83439256 41.82507088 506.12707707 46.68359375 501.35546875 C50.07918561 497.99671876 53.38417769 494.62147576 56.5 491 C60.94435252 485.83439256 65.82507088 481.12707707 70.68359375 476.35546875 C74.7182249 472.36461298 78.53971738 468.28347991 82.24023438 463.98242188 C85.96391909 459.78759393 90.03655539 455.92583073 94.0390625 452 C97.30665302 448.77025802 100.47152333 445.51488375 103.46875 442.03125 C107.92560605 436.85685023 112.8144639 432.13749431 117.68359375 427.35546875 C120.98585128 424.08904042 124.20736848 420.81925243 127.21875 417.28125 C132.53412835 411.2630117 138.32230508 405.67769492 144 400 C-224.61 399.67 -593.22 399.34 -973 399 C-973 365.67 -973 332.34 -973 298 C-604.06 297.67 -235.12 297.34 145 297 C139.72 291.72 134.44 286.44 129 281 C125.535 277.04 125.535 277.04 122 273 C120.63416215 271.57472621 119.25251296 270.16411129 117.84375 268.78125 C116.77447266 267.72357422 116.77447266 267.72357422 115.68359375 266.64453125 C114.96300781 265.93683594 114.24242187 265.22914063 113.5 264.5 C108.73142226 259.81672776 104.15024034 255.08033648 99.79101562 250.01367188 C96.52809 246.34510446 93.00151288 242.93887401 89.5 239.5 C84.73142226 234.81672776 80.15024034 230.08033648 75.79101562 225.01367188 C72.52809 221.34510446 69.00151288 217.93887401 65.5 214.5 C60.73142226 209.81672776 56.15024034 205.08033648 51.79101562 200.01367188 C48.52809 196.34510446 45.00151288 192.93887401 41.5 189.5 C36.73142226 184.81672776 32.15024034 180.08033648 27.79101562 175.01367188 C24.52809 171.34510446 21.00151288 167.93887401 17.5 164.5 C12.73142226 159.81672776 8.15024034 155.08033648 3.79101562 150.01367188 C0.52809 146.34510446 -2.99848712 142.93887401 -6.5 139.5 C-11.26857774 134.81672776 -15.84975966 130.08033648 -20.20898438 125.01367188 C-23.47191 121.34510446 -26.99848712 117.93887401 -30.5 114.5 C-35.26857774 109.81672776 -39.84975966 105.08033648 -44.20898438 100.01367188 C-47.47191 96.34510446 -50.99848712 92.93887401 -54.5 89.5 C-69.26006061 75.00398341 -69.26006061 75.00398341 -72 69 C-61.53527593 58.3621463 -61.53527593 58.3621463 -57.25 54.75 C-52.43420463 50.65060394 -48.05436192 46.10504899 -43.62988281 41.59277344 C-40.52538227 38.44563316 -37.38153279 35.41694279 -34.03125 32.53125 C-29.8076119 28.88933509 -25.90341837 24.97965701 -22 21 C-17.42090885 16.33147348 -12.78582925 11.83339797 -7.81054688 7.58569336 C-5.07031603 5.18577436 -2.54302754 2.60660323 0 0 Z " fill="#000000" transform="translate(1173,402)"/>
</svg>
