<?xml version="1.0" encoding="UTF-8"?>
<svg version="1.1" xmlns="http://www.w3.org/2000/svg" width="835" height="668">
<path d="M0 0 C2.14613095 -0.00072612 4.29225603 -0.00288875 6.43838549 -0.00549722 C14.01814586 -0.01467408 21.597889 -0.01884262 29.17765474 -0.01804566 C35.33035072 -0.0175153 41.48298282 -0.0245283 47.63566256 -0.03855348 C82.83128521 -0.1170081 117.93176503 0.06872688 153.07999849 2.16725707 C154.54887813 2.2529501 156.01776539 2.33851262 157.48666048 2.42394042 C173.43935617 3.36069924 189.29653346 4.78014392 205.16105318 6.69899535 C207.96569638 7.03411282 210.77041753 7.36122878 213.57706881 7.67848754 C237.66706239 10.40434549 261.38357346 14.02363895 285.07999849 19.16725707 C286.18649752 19.40525023 287.29299654 19.6432434 288.43302584 19.88844848 C301.33655595 22.72323707 313.86150989 26.5832482 326.39249849 30.72975707 C327.09555117 30.96150634 327.79860384 31.19325561 328.52296114 31.43202758 C336.9347809 34.2207817 345.1008279 37.28126044 353.07999849 41.16725707 C353.79583101 41.51200072 354.51166353 41.85674438 355.24918795 42.2119348 C359.2657999 44.16752488 363.24824574 46.19200359 367.22745943 48.22243285 C368.83420239 49.04189717 370.44502497 49.85335306 372.05656099 50.66335082 C387.18661007 58.54079525 402.77901325 70.01063545 413.55265474 83.35085082 C415.15336825 85.31557692 415.15336825 85.31557692 417.46281099 87.48756957 C420.24751643 90.33877543 422.60012878 93.35875789 424.89249849 96.60475707 C425.32336763 97.2145642 425.75423677 97.82437133 426.19816256 98.45265746 C433.80316487 109.3844975 439.51892853 120.68295701 444.07999849 133.16725707 C444.51054537 134.27842895 444.94109224 135.38960082 445.38468599 136.53444457 C454.9251928 162.66713712 456.07999849 190.6708282 456.07999849 218.16725707 C180.52999849 218.16725707 -95.02000151 218.16725707 -378.92000151 218.16725707 C-378.92000151 206.5353763 -378.89241796 195.41097469 -377.73250151 183.91725707 C-377.66720243 183.26148681 -377.60190336 182.60571654 -377.53462553 181.93007445 C-373.12575003 138.42026272 -355.95593307 98.38738635 -322.11726713 69.63551879 C-268.97538076 26.50523643 -197.01726243 14.42173782 -130.92000151 7.16725707 C-129.65842222 7.02707152 -129.65842222 7.02707152 -128.37135649 6.88405395 C-104.25286478 4.20492724 -80.16611922 2.226241 -55.92000151 1.16725707 C-55.01267554 1.12672745 -54.10534958 1.08619782 -53.17052889 1.04444003 C-35.44336744 0.26769371 -17.74279764 0.00340031 0 0 Z " fill="#000000" transform="translate(378.9200015068054,233.83274292945862)"/>
<path d="M0 0 C1.15152692 -0.00320648 2.30305384 -0.00641296 3.48947552 -0.0097166 C6.66789303 -0.01655727 9.84615794 -0.01453331 13.02457265 -0.00866088 C16.48931304 -0.00447186 19.95403243 -0.01190308 23.41876763 -0.01781338 C29.48539442 -0.02656042 35.55198744 -0.02789283 41.61861897 -0.02431011 C50.64015846 -0.01899644 59.66166536 -0.0251051 68.68320131 -0.03339304 C85.73406223 -0.048627 102.78490828 -0.05033874 119.83577458 -0.04787002 C133.00330133 -0.04603679 146.1708232 -0.04779759 159.33834934 -0.05209446 C161.23065949 -0.05269686 163.12296964 -0.05329806 165.0152798 -0.05389806 C167.86687225 -0.05480532 170.7184647 -0.05571399 173.57005715 -0.05663041 C200.08010903 -0.06505907 226.59015907 -0.06939624 253.1002121 -0.06522369 C254.09942926 -0.06506732 255.09864642 -0.06491094 256.12814289 -0.06474983 C261.19247619 -0.06394405 266.25680948 -0.06309828 271.32114277 -0.06223653 C272.82980925 -0.06197989 272.82980925 -0.06197989 274.36895384 -0.06171808 C276.40288002 -0.06137142 278.4368062 -0.06102289 280.47073238 -0.06067249 C312.11886947 -0.05531525 343.76697869 -0.06324615 375.41511059 -0.08170605 C410.97922551 -0.10242582 446.54332317 -0.11314882 482.10744447 -0.10913056 C485.900111 -0.10873522 489.69277753 -0.10837367 493.48544407 -0.10803318 C494.88620024 -0.10789708 494.88620024 -0.10789708 496.31525452 -0.10775824 C510.4071695 -0.10659268 524.49906704 -0.11323736 538.59097767 -0.1238451 C554.61906269 -0.13589806 570.64710931 -0.13745493 586.6751949 -0.12505493 C595.64168642 -0.11842837 604.60808613 -0.12005273 613.5745703 -0.13364345 C619.56886376 -0.14189531 625.56308853 -0.13918083 631.55737642 -0.12766818 C634.96945708 -0.121419 638.3812128 -0.12145764 641.79330591 -0.13153151 C663.42986784 -0.19097181 681.36465657 0.19727945 697.8899641 15.91072559 C708.26155863 26.84738063 711.28038028 40.24458194 711.23287487 54.93547535 C711.2337293 55.90432026 711.23458372 56.87316516 711.23546404 57.871369 C711.23710969 61.11416169 711.23161241 64.35690252 711.22614574 67.59969044 C711.22586365 69.92566902 711.22602204 72.2516477 711.22658825 74.57762623 C711.22687535 80.89112696 711.22099262 87.20460871 711.21401429 93.51810503 C711.20839934 99.4479633 711.20739115 105.37782083 711.20636242 111.3076814 C711.20417524 123.05085465 711.19752418 134.79402096 711.18805981 146.53719044 C711.17887707 157.94278904 711.17180045 169.34838576 711.16755199 180.75398731 C711.16728927 181.45734193 711.16702655 182.16069654 711.16675586 182.88536493 C711.1654508 186.41398193 711.1641871 189.94259894 711.16294396 193.47121596 C711.15258173 222.73230703 711.134898 251.99339122 711.11262035 281.25447559 C707.16898599 280.42716517 705.1731443 278.84716229 702.11262035 276.19197559 C681.51410665 258.94924624 656.45955331 247.89043072 631.85578442 237.64583302 C630.7791151 237.19745579 629.70244579 236.74907856 628.59315014 236.28711414 C627.77457531 235.94634342 626.95600048 235.6055727 626.11262035 235.25447559 C626.10675411 234.34738346 626.10088787 233.44029133 626.09484386 232.50571156 C626.03677706 223.92883202 625.96462066 215.35220902 625.87690544 206.77557945 C625.83230714 202.36695235 625.79302822 197.95841541 625.76618481 193.54964161 C625.74004611 189.28951877 625.69957021 185.02974489 625.64943409 180.76983929 C625.63283647 179.15011871 625.62127817 177.53033787 625.61500645 175.9105444 C625.56635846 164.49425306 625.09909215 154.67699817 617.42512035 145.51619434 C607.75426053 136.05770137 595.87234267 131.85475272 583.11262035 128.25447559 C582.45568188 128.06014942 581.7987434 127.86582325 581.1218977 127.66560841 C523.25342022 110.65681764 418.8342543 107.23241693 365.3430891 136.15681934 C362.80763117 137.74191411 360.45797499 139.40409718 358.11262035 141.25447559 C357.01949535 141.97635059 355.92637035 142.69822559 354.80012035 143.44197559 C349.06392156 149.44497433 345.07733883 157.89317539 344.92316723 166.27278614 C344.9064497 167.05006565 344.88973217 167.82734516 344.87250805 168.6281786 C344.85214489 169.87212139 344.85214489 169.87212139 344.83137035 171.14119434 C344.81296093 171.99880863 344.79455151 172.85642292 344.77558422 173.74002552 C344.69696571 177.40527983 344.62891138 181.0707104 344.56037426 184.73616505 C344.50880231 187.4129383 344.45151983 190.08954623 344.39387035 192.76619434 C344.38029491 193.60156223 344.36671947 194.43693012 344.35273266 195.29761219 C344.2254936 201.14160234 344.2254936 201.14160234 343.11262035 202.25447559 C340.6760159 202.35530323 338.26837334 202.39420163 335.83137035 202.38728809 C335.10268749 202.38824482 334.37400463 202.38920155 333.62324047 202.39018726 C332.07982325 202.39086895 330.53640319 202.38901547 328.99299145 202.38484669 C326.62264636 202.37949822 324.25249076 202.38479201 321.8821516 202.39119434 C320.38605743 202.39053356 318.88996338 202.38925239 317.39387035 202.38728809 C316.32356579 202.39032444 316.32356579 202.39032444 315.23163891 202.39342213 C310.22757227 202.36942751 310.22757227 202.36942751 309.11262035 201.25447559 C308.98922418 198.48875867 308.92642556 195.74423625 308.90168285 192.97713184 C308.87357845 191.24860733 308.84491383 189.52009185 308.81574535 187.79158497 C308.77474207 185.06657479 308.73786203 182.34172682 308.71125317 179.61653614 C308.76804017 160.32394341 308.76804017 160.32394341 299.11262035 144.25447559 C253.76925441 106.14259474 163.93065406 116.80340271 109.11262035 121.25447559 C95.8324337 122.44741415 82.90211514 124.44006487 70.11262035 128.25447559 C69.37140942 128.46974903 68.63019848 128.68502247 67.8665266 128.90681934 C53.89674768 133.02104708 39.96582037 138.49654534 31.76887035 151.36385059 C28.5990983 157.38641749 27.98833699 162.81938082 27.90729809 169.6150713 C27.89739849 170.33756565 27.88749889 171.06006001 27.87729931 171.80444813 C27.8458483 174.17968498 27.82099215 176.5549418 27.7962141 178.93025684 C27.77563039 180.58221408 27.75463355 182.23416621 27.73324108 183.88611317 C27.67816673 188.22449572 27.62869318 192.56292465 27.58039379 196.90138721 C27.5300716 201.33227614 27.47444159 205.7630981 27.41926098 210.19392872 C27.31185855 218.88072098 27.21037413 227.56756943 27.11262035 236.25447559 C26.09316326 236.66163303 25.07370617 237.06879047 24.02335644 237.48828602 C22.66687559 238.03037246 21.31040004 238.57247216 19.95392895 239.11458302 C19.28425594 239.38200054 18.61458294 239.64941807 17.92461681 239.92493916 C-7.18838195 249.96352013 -30.05621329 261.28871756 -51.1803484 278.32088184 C-53.66632392 280.09657864 -55.00059769 280.65663956 -57.88737965 281.25447559 C-57.9330482 251.50411274 -57.96842137 221.75375107 -57.98951031 192.0033607 C-57.99201159 188.48753761 -57.99460024 184.97171459 -57.99724293 181.45589161 C-57.99776755 180.75598255 -57.99829217 180.0560735 -57.99883269 179.33495507 C-58.00752484 168.01625437 -58.02328824 156.69757408 -58.04168524 145.37888547 C-58.06041744 133.75665565 -58.07135377 122.13443771 -58.07555664 110.5121935 C-58.07816147 103.98762468 -58.08427391 97.46310208 -58.09883976 90.93854809 C-58.11244715 84.793348 -58.11659588 78.64821303 -58.11359501 72.50299931 C-58.11414376 70.25164848 -58.11810231 68.0002954 -58.1257906 65.74895763 C-58.13580123 62.66548746 -58.13332626 59.58226035 -58.12788868 56.49878407 C-58.13371436 55.61645247 -58.13954005 54.73412088 -58.14554226 53.82505196 C-58.07346521 38.6117799 -53.40545111 25.46367291 -42.88737965 14.25447559 C-30.60251067 2.71555692 -16.35740156 -0.06827966 0 0 Z " fill="#000000" transform="translate(90.88737964630127,-0.25447559356689453)"/>
<path d="M0 0 C275.55 0 551.1 0 835 0 C835 60.72 835 121.44 835 184 C796.06 184 757.12 184 717 184 C716.6875 146.6875 716.6875 146.6875 716.61206055 134.9675293 C716.5754356 131.4576582 716.5754356 131.4576582 716.5349884 127.9478302 C716.51898827 126.40169268 716.50859975 124.85549013 716.50288391 123.3092804 C716.73892092 106.10850988 716.73892092 106.10850988 708.8671875 91.43359375 C700.70756851 85.16878168 690.53942042 84.84754287 680.67633533 84.87136555 C679.7533783 84.86961251 678.83042126 84.86785947 677.87949583 84.86605331 C674.78185693 84.8613955 671.68426501 84.86385827 668.58662415 84.86628723 C666.34524328 84.86441915 664.10386275 84.86211846 661.86248273 84.85942191 C655.69900569 84.85329713 649.53554219 84.8534383 643.3720628 84.85461628 C637.40876999 84.85479919 631.44548116 84.8503101 625.4821903 84.8460034 C611.77770525 84.83633252 598.07322395 84.83351925 584.36873589 84.83294634 C573.78452656 84.83248676 563.2003187 84.83042826 552.61610985 84.82724571 C549.56923888 84.82634816 546.52236792 84.82545835 543.47549695 84.82457083 C542.33929416 84.82423926 542.33929416 84.82423926 541.18013779 84.82390099 C519.87357514 84.81774671 498.56701299 84.81380043 477.26044941 84.81424427 C476.05548254 84.81426764 476.05548254 84.81426764 474.8261729 84.81429148 C470.75468143 84.81437459 466.68318996 84.81447363 462.61169849 84.81457619 C461.39878584 84.8146061 461.39878584 84.8146061 460.16136991 84.81463663 C458.5261661 84.81467706 456.89096229 84.81471886 455.25575848 84.81476202 C429.81804225 84.81537469 404.38033936 84.80786971 378.94262695 84.79418945 C350.36118225 84.77882484 321.7797463 84.77022347 293.1982972 84.77115268 C290.14985446 84.77122731 287.10141172 84.77127601 284.05296898 84.77130699 C282.92707005 84.77132447 282.92707005 84.77132447 281.7784257 84.77134231 C269.70543246 84.77137307 257.6324508 84.76499034 245.559461 84.75637473 C233.42265471 84.7478928 221.28586534 84.74691252 209.14905772 84.75348405 C202.57552029 84.75685154 196.00201636 84.75679566 189.42848206 84.7481308 C183.408682 84.74027746 177.3889572 84.74168539 171.36915901 84.75041493 C169.1935295 84.75195248 167.01789441 84.75012416 164.84227148 84.74455485 C142.67689068 84.12232737 142.67689068 84.12232737 123.6875 94.0625 C118.03122183 103.90861386 118.52967523 115.57032814 118.48828125 126.578125 C118.47277441 128.05518998 118.45597043 129.53224192 118.43786621 131.00927734 C118.38044082 136.42270827 118.34790785 141.83638029 118.3125 147.25 C118.209375 159.3775 118.10625 171.505 118 184 C79.06 184 40.12 184 0 184 C0 123.28 0 62.56 0 0 Z " fill="#000000" transform="translate(0,484)"/>
</svg>
