<?xml version="1.0" standalone="no"?>
<!DOCTYPE svg PUBLIC "-//W3C//DTD SVG 20010904//EN"
 "http://www.w3.org/TR/2001/REC-SVG-20010904/DTD/svg10.dtd">
<svg version="1.0" xmlns="http://www.w3.org/2000/svg"
 width="512.000000pt" height="512.000000pt" viewBox="0 0 512.000000 512.000000"
 preserveAspectRatio="xMidYMid meet">

<g transform="translate(0.000000,512.000000) scale(0.100000,-0.100000)"
fill="#000000" stroke="none">
<path d="M1500 4669 c-65 -26 -100 -85 -100 -169 l0 -60 -317 0 c-370 0 -410
-6 -553 -76 -132 -66 -228 -162 -294 -294 -82 -166 -77 -53 -74 -1738 l3
-1497 23 -70 c39 -114 88 -193 176 -280 93 -93 184 -145 302 -175 75 -20 119
-20 1894 -20 1775 0 1819 0 1894 20 118 30 209 82 302 175 88 87 137 166 176
280 l23 70 3 1497 c3 1685 8 1572 -74 1738 -66 132 -162 228 -294 294 -143 70
-183 76 -552 76 l-318 0 0 64 c0 69 -20 111 -72 149 -41 31 -114 33 -162 5
-53 -31 -77 -75 -84 -153 l-5 -65 -837 0 -837 0 -5 64 c-4 42 -13 77 -28 101
-38 62 -123 90 -190 64z m-100 -613 c0 -49 5 -70 23 -96 51 -75 130 -99 204
-61 56 28 84 77 91 157 l5 64 837 0 837 0 5 -64 c7 -80 35 -129 91 -157 74
-38 153 -14 205 61 17 26 22 47 22 97 l0 64 328 -3 327 -3 57 -27 c73 -34 142
-103 176 -176 26 -56 27 -62 30 -289 l4 -233 -2082 0 -2082 0 4 233 c3 227 4
233 30 289 45 96 138 174 235 197 21 5 176 9 346 10 l307 1 0 -64z m3238
-2088 l-3 -1103 -27 -57 c-34 -73 -103 -142 -176 -176 l-57 -27 -1815 0 -1815
0 -59 29 c-76 37 -140 101 -174 174 l-27 57 -3 1103 -2 1102 2080 0 2080 0 -2
-1102z"/>
</g>
</svg>
