<?xml version="1.0" standalone="no"?>
<!DOCTYPE svg PUBLIC "-//W3C//DTD SVG 20010904//EN"
 "http://www.w3.org/TR/2001/REC-SVG-20010904/DTD/svg10.dtd">
<svg version="1.0" xmlns="http://www.w3.org/2000/svg"
 width="512.000000pt" height="512.000000pt" viewBox="0 0 512.000000 512.000000"
 preserveAspectRatio="xMidYMid meet">

<g transform="translate(0.000000,512.000000) scale(0.100000,-0.100000)"
fill="#000000" stroke="none">
<path d="M2522 4618 c-17 -17 -17 -679 0 -696 7 -7 24 -12 38 -12 50 0 50 1
50 360 0 359 0 360 -50 360 -14 0 -31 -5 -38 -12z"/>
<path d="M2526 3764 c-14 -13 -16 -59 -16 -349 0 -290 2 -336 16 -349 20 -20
48 -20 68 0 14 13 16 59 16 349 0 290 -2 336 -16 349 -8 9 -24 16 -34 16 -10
0 -26 -7 -34 -16z"/>
<path d="M2522 2908 c-17 -17 -17 -679 0 -696 7 -7 24 -12 38 -12 50 0 50 1
50 360 0 359 0 360 -50 360 -14 0 -31 -5 -38 -12z"/>
<path d="M2526 2054 c-14 -13 -16 -59 -16 -349 0 -290 2 -336 16 -349 20 -20
48 -20 68 0 14 13 16 59 16 349 0 290 -2 336 -16 349 -8 9 -24 16 -34 16 -10
0 -26 -7 -34 -16z"/>
<path d="M2522 1198 c-17 -17 -17 -679 0 -696 15 -15 61 -15 76 0 17 17 17
679 0 696 -15 15 -61 15 -76 0z"/>
</g>
</svg>
