<?xml version="1.0" standalone="no"?>
<!DOCTYPE svg PUBLIC "-//W3C//DTD SVG 20010904//EN"
 "http://www.w3.org/TR/2001/REC-SVG-20010904/DTD/svg10.dtd">
<svg version="1.0" xmlns="http://www.w3.org/2000/svg"
 width="1024.000000pt" height="1024.000000pt" viewBox="0 0 1024.000000 1024.000000"
 preserveAspectRatio="xMidYMid meet">

<g transform="translate(0.000000,1024.000000) scale(0.100000,-0.100000)"
fill="#000000" stroke="none">
<path d="M2351 8239 c-38 -15 -170 -139 -197 -184 -27 -46 -31 -111 -11 -158
7 -15 1258 -1274 2781 -2797 1964 -1965 2781 -2775 2810 -2790 49 -23 106 -26
144 -6 32 17 185 171 201 203 16 31 14 109 -4 146 -24 50 -5542 5563 -5587
5582 -41 17 -101 19 -137 4z"/>
<path d="M4845 6870 c-172 -18 -512 -86 -537 -109 -4 -3 66 -82 155 -175 l162
-168 46 11 c175 40 533 55 749 31 591 -65 1199 -360 1801 -875 68 -59 209
-188 312 -287 211 -201 246 -224 331 -214 136 16 218 165 157 284 -37 73 -398
421 -649 625 -615 502 -1184 777 -1774 857 -174 24 -599 35 -753 20z"/>
<path d="M3336 6337 c-259 -162 -427 -290 -673 -510 -171 -152 -418 -411 -443
-463 -52 -107 6 -242 118 -274 100 -27 132 -11 301 154 338 328 632 569 891
729 63 39 117 72 119 74 4 3 -278 296 -289 300 -3 1 -14 -4 -24 -10z"/>
<path d="M3102 5313 c-70 -34 -112 -128 -92 -205 9 -34 29 -59 93 -121 45 -42
97 -87 114 -100 18 -12 33 -26 33 -30 0 -4 -65 -85 -144 -180 -79 -95 -151
-186 -160 -204 -35 -69 -4 -176 63 -220 40 -27 117 -31 160 -8 34 17 176 174
356 392 l20 25 79 -47 c93 -55 288 -152 369 -184 31 -13 57 -28 57 -34 0 -5
-32 -107 -71 -226 -83 -252 -90 -298 -57 -356 40 -69 139 -103 215 -74 65 24
79 50 164 308 44 135 82 247 84 249 1 2 56 -8 121 -22 114 -24 320 -53 414
-58 l44 -3 -3 -215 c-3 -255 3 -294 60 -344 80 -73 194 -58 255 32 20 29 22
50 29 280 l7 250 80 7 81 7 -54 56 c-30 31 -103 108 -164 170 l-110 112 -60 0
c-75 0 -303 25 -415 46 -472 87 -910 291 -1285 600 -64 52 -128 99 -141 105
-38 14 -105 10 -142 -8z"/>
<path d="M6997 5316 c-15 -8 -60 -41 -100 -73 -172 -139 -427 -307 -590 -389
-29 -15 -54 -28 -56 -30 -1 -1 53 -64 120 -138 98 -107 128 -134 143 -130 11
4 56 28 102 54 l83 48 33 -42 c126 -157 294 -345 326 -363 75 -45 171 -24 225
49 28 37 34 125 13 166 -9 17 -84 111 -168 208 l-152 177 25 19 c132 104 213
177 226 202 37 69 8 180 -59 227 -40 29 -130 37 -171 15z"/>
</g>
</svg>
