<?xml version="1.0" standalone="no"?>
<!DOCTYPE svg PUBLIC "-//W3C//DTD SVG 20010904//EN"
 "http://www.w3.org/TR/2001/REC-SVG-20010904/DTD/svg10.dtd">
<svg version="1.0" xmlns="http://www.w3.org/2000/svg"
 width="512.000000pt" height="512.000000pt" viewBox="0 0 512.000000 512.000000"
 preserveAspectRatio="xMidYMid meet">

<g transform="translate(0.000000,512.000000) scale(0.100000,-0.100000)"
fill="#000000" stroke="none">
<path d="M2346 4775 c-362 -69 -676 -297 -850 -619 -49 -90 -96 -217 -122
-328 -14 -60 -18 -144 -21 -485 l-5 -411 -187 -4 -187 -3 -66 -33 c-78 -38
-138 -100 -177 -182 l-26 -55 0 -1025 0 -1025 27 -57 c37 -79 98 -142 177
-181 l66 -32 1585 0 1585 0 57 27 c79 37 142 98 181 177 l32 66 0 1025 0 1025
-26 55 c-39 82 -99 144 -177 182 l-66 33 -188 3 -188 4 0 357 c0 372 -7 476
-41 601 -116 430 -443 753 -876 867 -125 32 -380 41 -507 18z m413 -475 c237
-66 423 -244 508 -485 l28 -80 3 -402 3 -403 -741 0 -741 0 3 403 3 402 27 80
c91 269 320 461 603 506 75 12 221 2 304 -21z m-47 -2052 c79 -36 142 -98 181
-177 29 -60 32 -74 32 -161 0 -88 -3 -101 -33 -162 -20 -42 -51 -83 -81 -110
l-49 -44 40 -244 c21 -134 37 -255 33 -267 -3 -13 -21 -41 -40 -61 l-33 -37
-202 0 -202 0 -33 37 c-19 20 -37 48 -40 61 -4 12 12 133 33 267 l40 244 -49
44 c-30 27 -61 68 -81 110 -30 61 -33 74 -33 162 0 82 4 103 26 151 47 99 128
171 232 205 67 22 190 13 259 -18z"/>
</g>
</svg>
