<?xml version="1.0" encoding="UTF-8"?>
<svg version="1.1" xmlns="http://www.w3.org/2000/svg" width="245" height="250">
<path d="M0 0 C3.41615283 -0.09043805 6.83155064 -0.15212564 10.24847412 -0.20440674 C11.24086594 -0.23438248 12.23325775 -0.26435822 13.25572205 -0.29524231 C20.90658125 -0.36068161 27.03351002 1.27312187 32.88519287 6.35809326 C33.51425537 7.1199292 34.14331787 7.88176514 34.79144287 8.66668701 C35.76597412 9.81330811 35.76597412 9.81330811 36.76019287 10.98309326 C39.59801112 14.91405068 39.43182336 18.34901507 39.45941162 23.06512451 C39.46369171 23.78292587 39.4679718 24.50072723 39.47238159 25.24028015 C39.48256618 27.65330912 39.48238106 30.06614002 39.47894287 32.47918701 C39.47800629 33.31299896 39.4770697 34.14681091 39.47610474 35.00588989 C39.44033731 49.96636467 39.16717704 64.92388445 38.70858765 79.87719727 C38.63918703 82.2245937 38.57756011 84.57223367 38.5239563 86.92004395 C38.44503504 90.24953254 38.33506091 93.57665711 38.21722412 96.90496826 C38.19926788 97.88900131 38.18131165 98.87303436 38.16281128 99.8868866 C37.6722205 111.46573871 32.18678623 118.96457884 24.13983154 126.88690186 C22.92906197 128.10840439 22.92906197 128.10840439 21.6938324 129.35458374 C19.04458869 132.02062109 16.37774764 134.66820674 13.70941162 137.31512451 C11.85161827 139.17374728 9.9946413 141.03318637 8.13844299 142.8934021 C4.25605562 146.78029358 0.36366153 150.65693625 -3.53497314 154.52752686 C-8.02867021 158.98914579 -12.50608013 163.46661637 -16.97513753 167.95290601 C-21.29449124 172.28817292 -25.62516506 176.61193598 -29.96094322 180.93077469 C-31.79649846 182.76115898 -33.62924566 184.59436384 -35.45908546 186.43046188 C-38.01932999 188.99617398 -40.59216373 191.54856469 -43.16876221 194.09783936 C-43.91760681 194.85320984 -44.66645142 195.60858032 -45.43798828 196.38684082 C-52.00062398 202.83195524 -57.76842354 206.67660312 -67.20855713 206.66668701 C-68.43574463 206.68860107 -69.66293213 206.71051514 -70.92730713 206.73309326 C-79.31717173 205.33767157 -85.09247891 199.1640448 -90.89703369 193.33563232 C-91.67206238 192.56907318 -92.44709106 191.80251404 -93.24560547 191.01272583 C-95.78794811 188.49365284 -98.31906556 185.96366036 -100.84918213 183.43231201 C-102.62149408 181.66710647 -104.39410211 179.90219814 -106.16699219 178.13757324 C-109.87387362 174.44411279 -113.57479256 170.7447965 -117.27203369 167.04168701 C-121.06049038 163.24732183 -124.85878605 159.46314473 -128.66656494 155.68817139 C-133.2778051 151.11612113 -137.87660272 146.53192789 -142.46599579 141.93795013 C-144.21148601 140.19414908 -145.96094589 138.45431187 -147.71448517 136.71860504 C-150.16767816 134.28763243 -152.6043675 131.84119176 -155.03765869 129.39031982 C-155.75876831 128.68247345 -156.47987793 127.97462708 -157.22283936 127.24533081 C-162.43877772 121.94174881 -165.9293351 116.51022923 -167.23980713 109.10028076 C-167.22949463 108.25594482 -167.21918213 107.41160889 -167.20855713 106.54168701 C-167.21886963 105.69477295 -167.22918213 104.84785889 -167.23980713 103.97528076 C-165.66687163 95.47448962 -160.2874842 90.10887893 -154.36334229 84.25726318 C-153.5238353 83.41235321 -152.68432831 82.56744324 -151.81938171 81.69692993 C-149.5311916 79.39842707 -147.23434908 77.10905146 -144.93273973 74.82399917 C-142.51757441 72.42276271 -140.11265718 70.01129841 -137.70620728 67.60133362 C-133.66643981 63.55887097 -129.61869352 59.52453626 -125.565979 55.49505615 C-120.88843616 50.84414569 -116.22347724 46.18090003 -111.56510508 41.51079386 C-107.07101191 37.00590395 -102.56845552 32.50956673 -98.06190109 28.01714516 C-96.14944925 26.11043395 -94.23992481 24.20086125 -92.33272171 22.28890038 C-89.66661403 19.61988134 -86.9910018 16.96077283 -84.31256104 14.30413818 C-83.13407341 13.11889809 -83.13407341 13.11889809 -81.93177795 11.90971375 C-75.17672949 5.24575635 -69.469451 2.11849075 -59.95977783 1.80706787 C-58.79948563 1.7671019 -57.63919342 1.72713593 -56.44374084 1.68595886 C-55.18663803 1.64737259 -53.92953522 1.60878632 -52.63433838 1.56903076 C-51.32313522 1.52605362 -50.01193207 1.48307648 -48.66099548 1.438797 C-45.87102271 1.34780371 -43.08097364 1.2599268 -40.29083252 1.17425537 C-37.48177787 1.08783155 -34.67288419 0.99780269 -31.86407471 0.90374756 C-23.75876675 0.63238459 -15.65355909 0.39128043 -7.54602051 0.19665527 C-5.03055648 0.13604216 -2.51520182 0.07066127 0 0 Z M-8.31286621 13.17797852 C-15.98409247 13.33759826 -23.65265627 13.54835191 -31.32159424 13.79388428 C-34.65744587 13.89760767 -37.99319432 13.98931829 -41.3295145 14.07549 C-44.56171084 14.1628097 -47.79327015 14.26963433 -51.02496338 14.37371826 C-52.8061129 14.41611382 -52.8061129 14.41611382 -54.62324524 14.45936584 C-55.72977951 14.49918076 -56.83631378 14.53899567 -57.97637939 14.58001709 C-58.94181168 14.60888504 -59.90724396 14.63775299 -60.90193176 14.66749573 C-68.40648686 15.83515203 -72.84960752 20.79502187 -77.99298096 25.93695068 C-79.20620529 27.13265182 -79.20620529 27.13265182 -80.44393921 28.35250854 C-83.10928708 30.98432048 -85.7631175 33.62737009 -88.41558838 36.27215576 C-90.26534822 38.10973416 -92.11525987 39.94715977 -93.96531677 41.78443909 C-97.83891911 45.63432019 -101.70481619 49.49183369 -105.56768799 53.35247803 C-110.02646396 57.80821684 -114.50362007 62.24488324 -118.9895876 66.6732294 C-123.31378933 70.94384149 -127.61845023 75.23365937 -131.91620445 79.53087807 C-133.74335827 81.35264474 -135.57625793 83.16866738 -137.41495705 84.97878075 C-139.98388439 87.51106636 -142.52974795 90.06453865 -145.07110596 92.62445068 C-145.83419571 93.36708664 -146.59728546 94.1097226 -147.38349915 94.87486267 C-150.55172778 98.10708193 -153.05626293 100.70760475 -153.87339783 105.25917053 C-153.59381142 111.78070523 -150.82432981 115.3659918 -146.31646729 119.85272217 C-145.4318985 120.74029205 -144.54732971 121.62786194 -143.63595581 122.54232788 C-142.67340746 123.49286843 -141.71062293 124.44316987 -140.74761963 125.39324951 C-139.75438989 126.38341675 -138.76175413 127.37418012 -137.76968384 128.36550903 C-135.69459359 130.43601111 -133.61471163 132.50152562 -131.53082275 134.56317139 C-128.86887151 137.19684188 -126.21567101 139.83910934 -123.56559181 142.48472023 C-121.02524534 145.01989373 -118.4802403 147.55037069 -115.93511963 150.08074951 C-115.21450285 150.79854521 -115.21450285 150.79854521 -114.47932816 151.53084183 C-113.10860624 152.89463497 -111.73409028 154.25461152 -110.35943604 155.61444092 C-109.58016754 156.38688141 -108.80089905 157.1593219 -107.99801636 157.95516968 C-105.6637471 160.14624827 -103.21792106 162.11838407 -100.70855713 164.10418701 C-99.60197582 165.2845939 -98.52843612 166.49702816 -97.49371338 167.74090576 C-93.26054831 172.68437187 -88.73213342 177.30179013 -84.14605713 181.91668701 C-83.32170166 182.76166748 -82.49734619 183.60664795 -81.64801025 184.47723389 C-74.91542104 191.57735913 -74.91542104 191.57735913 -65.83355713 194.16668701 C-60.35577574 192.30424134 -55.53393724 188.43882825 -51.70855713 184.10418701 C-51.70855713 183.44418701 -51.70855713 182.78418701 -51.70855713 182.10418701 C-51.11208909 181.83234211 -50.51562105 181.56049721 -49.90107822 181.28041458 C-47.75005372 180.1264488 -46.3482829 178.99756462 -44.6282196 177.2845459 C-44.0464798 176.7098909 -43.46473999 176.1352359 -42.8653717 175.54316711 C-42.23926498 174.91458298 -41.61315826 174.28599884 -40.96807861 173.6383667 C-39.96493622 172.6428907 -39.96493622 172.6428907 -38.94152832 171.62730408 C-36.7323692 169.43204432 -34.53071829 167.22943281 -32.32965088 165.02606201 C-30.79577806 163.49607621 -29.26168167 161.96631451 -27.72737122 160.43676758 C-24.51202949 157.22888903 -21.30059323 154.01715997 -18.09161377 150.80291748 C-13.98203568 146.68754782 -9.86121432 142.58364684 -5.73715115 138.48279953 C-2.56546822 135.3258606 0.59924765 132.16200878 3.76200676 128.9961319 C5.27829297 127.48035866 6.79694083 125.96694403 8.31799507 124.45595551 C10.44603713 122.34027144 12.56429005 120.21523592 14.68035889 118.08758545 C15.30848984 117.46709824 15.93662079 116.84661102 16.58378601 116.20732117 C22.21296063 110.50994232 24.60394825 105.87962349 24.93890381 97.71380615 C24.98724176 96.66868032 24.98724176 96.66868032 25.03655624 95.60244083 C25.13389958 93.43667342 25.21306974 91.27071315 25.29144287 89.10418701 C25.37851501 87.16344803 25.37851501 87.16344803 25.46734619 85.1835022 C25.83476637 76.81924689 26.10819707 68.45107542 26.38616943 60.08343506 C26.48822394 57.03910972 26.59940726 53.99531645 26.71820068 50.95159912 C26.86331339 47.23123799 26.99257338 43.51063803 27.11064911 39.78932381 C27.15779869 38.38541247 27.2104083 36.98167256 27.26880646 35.57818413 C27.95046369 25.33246775 27.95046369 25.33246775 24.29144287 16.10418701 C19.32421737 12.38054105 14.26652402 12.72465759 8.32659912 12.86590576 C7.33152847 12.87820724 6.33645782 12.89050873 5.31123352 12.90318298 C0.76928292 12.96896555 -3.77141672 13.08500081 -8.31286621 13.17797852 Z " fill="#000000" transform="translate(180.70855712890625,20.89581298828125)"/>
<path d="M0 0 C4.17236675 0.7122321 6.69682063 2.7134455 9.8515625 5.36328125 C10.41101563 5.81509766 10.97046875 6.26691406 11.546875 6.73242188 C13.82781478 8.5749263 16.07350875 10.40352037 18.1875 12.4375 C21.41122705 14.19758086 23.71749308 13.34980335 27.2265625 12.55078125 C30.42482034 11.53572543 33.56312489 10.4409927 36.70898438 9.27929688 C40.69179054 7.87239418 44.00643573 7.20944747 48.2265625 7.55078125 C50.1640625 8.55078125 50.1640625 8.55078125 51.2265625 10.55078125 C51.2265625 16.77672959 49.06713155 22.39047068 46.95507812 28.18261719 C45.66528812 31.80192587 44.8573966 34.71869881 45.2265625 38.55078125 C46.38348582 40.65163719 46.38348582 40.65163719 48.0703125 42.546875 C48.65683594 43.27068359 49.24335938 43.99449219 49.84765625 44.74023438 C51.09833933 46.23663377 52.35093966 47.73143286 53.60546875 49.22460938 C58.06788388 54.74133137 58.06788388 54.74133137 58.8828125 58.8984375 C58.2265625 61.55078125 58.2265625 61.55078125 56.55175781 63.21191406 C53.58214521 64.92184219 51.77220685 64.81609802 48.3671875 64.625 C47.25214844 64.57021484 46.13710937 64.51542969 44.98828125 64.45898438 C43.82941406 64.38615234 42.67054688 64.31332031 41.4765625 64.23828125 C40.30222656 64.17705078 39.12789063 64.11582031 37.91796875 64.05273438 C35.01975414 63.89957669 32.12315248 63.7317389 29.2265625 63.55078125 C28.93378418 64.15220947 28.64100586 64.7536377 28.33935547 65.37329102 C26.88093119 68.22710543 25.13211024 70.82417869 23.3515625 73.48828125 C22.67351562 74.50792969 21.99546875 75.52757812 21.296875 76.578125 C15.8967003 84.33196074 15.8967003 84.33196074 12.1640625 85.55078125 C9.2265625 85.55078125 9.2265625 85.55078125 7.65698242 84.36547852 C5.91792233 82.15922597 5.23559919 80.19728047 4.40234375 77.515625 C4.09619141 76.54173828 3.79003906 75.56785156 3.47460938 74.56445312 C3.01151367 73.04174805 3.01151367 73.04174805 2.5390625 71.48828125 C2.21873047 70.46927734 1.89839844 69.45027344 1.56835938 68.40039062 C-0.7734375 60.86569663 -0.7734375 60.86569663 -0.7734375 58.55078125 C-1.75828125 58.43347656 -2.743125 58.31617188 -3.7578125 58.1953125 C-7.97271203 57.58939416 -11.95840256 56.48585261 -16.0234375 55.23828125 C-16.72984375 55.03783203 -17.43625 54.83738281 -18.1640625 54.63085938 C-21.17801304 53.70897867 -23.47001851 52.82582709 -25.8203125 50.6953125 C-26.7734375 48.55078125 -26.7734375 48.55078125 -26.8125 46.08203125 C-25.35833681 42.5395585 -23.25955834 41.24323366 -20.1484375 39.05078125 C-19.60662842 38.65914795 -19.06481934 38.26751465 -18.5065918 37.86401367 C-16.19610523 36.20193952 -13.85519649 34.60303531 -11.45703125 33.0703125 C-7.8228803 30.78296994 -7.8228803 30.78296994 -6.08984375 27.0078125 C-5.61194603 21.7863374 -5.8047256 16.59860748 -5.98828125 11.36328125 C-6.04950141 7.83477359 -6.06892675 5.22531187 -4.640625 1.96484375 C-2.7734375 0.55078125 -2.7734375 0.55078125 0 0 Z M5.2265625 17.55078125 C5.25878906 18.69675781 5.29101562 19.84273437 5.32421875 21.0234375 C5.34940994 33.06880447 5.34940994 33.06880447 2.296875 37.09765625 C0.01438903 38.78894093 -2.30844834 40.14635885 -4.7734375 41.55078125 C-6.14359439 42.84624474 -7.48799917 44.17121471 -8.7734375 45.55078125 C-7.20142578 46.00517578 -7.20142578 46.00517578 -5.59765625 46.46875 C-4.21845215 46.89095534 -2.8395618 47.31418654 -1.4609375 47.73828125 C-0.77064453 47.93486328 -0.08035156 48.13144531 0.63085938 48.33398438 C3.87033693 49.35121163 5.91303001 50.16285121 8.0703125 52.83203125 C9.33706899 55.81062084 10.43109372 58.77879301 11.4140625 61.86328125 C11.75824219 62.93191406 12.10242188 64.00054687 12.45703125 65.1015625 C12.71097656 65.90980469 12.96492188 66.71804687 13.2265625 67.55078125 C16.70291125 64.35931518 16.70291125 64.35931518 19.296875 60.47265625 C20.7383418 57.81882995 21.76530322 56.34842455 24.2265625 54.55078125 C29.76633064 53.24499878 35.57028454 53.45000124 41.2265625 53.55078125 C39.96755515 49.98871168 38.55427191 47.59678601 36.0390625 44.80078125 C33.68017619 41.74169024 32.81461276 39.9829075 33.2265625 36.11328125 C33.52216575 34.58466624 33.85734415 33.0633033 34.2265625 31.55078125 C34.40316406 30.70257813 34.57976562 29.854375 34.76171875 28.98046875 C35.21723099 26.82775166 35.70602147 24.68853712 36.2265625 22.55078125 C35.68128906 22.68355469 35.13601562 22.81632812 34.57421875 22.953125 C32.9826718 23.32584625 31.38567485 23.67572362 29.78515625 24.0078125 C28.18184475 24.34805723 26.58693617 24.73465972 25.01171875 25.1875 C20.93262304 26.10953791 18.97547348 25.98938648 15.28515625 23.828125 C13.32435615 22.37861567 11.39728407 20.88204803 9.51171875 19.3359375 C7.44717751 17.34557528 7.44717751 17.34557528 5.2265625 17.55078125 Z " fill="#000000" transform="translate(96.7734375,86.44921875)"/>
<path d="M0 0 C4.60991973 3.3526689 8.829804 6.86741789 10.484375 12.5 C11.24244475 18.42016377 10.90700098 23.7878716 7.48828125 28.87890625 C3.78699324 33.5322316 0.28680675 36.51647342 -5.79296875 37.34765625 C-13.69376686 37.7726647 -18.0790707 35.73349037 -23.8515625 30.56640625 C-27.94671387 25.97937916 -27.92016776 21.03746711 -27.66796875 15.09375 C-26.89351368 9.36133487 -24.51042022 5.94124378 -20.1875 2.125 C-14.26383516 -2.16020435 -6.86087457 -2.11103833 0 0 Z " fill="#000000" transform="translate(188.25,44)"/>
</svg>
