<?xml version="1.0" encoding="UTF-8"?>
<svg version="1.1" xmlns="http://www.w3.org/2000/svg" width="602" height="597">
<path d="M0 0 C1.18916016 1.02287109 1.18916016 1.02287109 2.40234375 2.06640625 C13.97417422 12.25036726 24.61019227 23.03500528 33.81542969 35.40966797 C34.88637819 36.84745827 35.97721628 38.27038116 37.0703125 39.69140625 C57.56827257 66.86987557 71.90786001 99.50086434 78 133 C78.14663086 133.75345703 78.29326172 134.50691406 78.44433594 135.28320312 C83.43149401 161.85992935 83.5043546 192.50758464 78 219 C77.83371094 219.83692383 77.66742188 220.67384766 77.49609375 221.53613281 C72.44584178 246.4039476 63.98030505 271.30411622 50.578125 292.96484375 C48.8448993 295.75002862 48.8448993 295.75002862 48.95703125 298.1640625 C50.45865843 300.80737626 52.37707781 302.39087138 54.6875 304.375 C61.65696996 310.50477479 68.16108662 317.09284261 74.67684937 323.69598389 C81.11943369 330.24985156 81.11943369 330.24985156 87.921875 336.421875 C94.16322038 341.76390933 99.81441196 347.76015434 105.58203125 353.60253906 C112.59609193 360.75709529 112.59609193 360.75709529 120 367.5 C126.22055396 372.80803468 131.84107866 378.78716672 137.58203125 384.60253906 C144.59609193 391.75709529 144.59609193 391.75709529 152 398.5 C158.22055396 403.80803468 163.84107866 409.78716672 169.58203125 415.60253906 C174.90440419 420.98764468 180.2202887 426.30551642 185.97998047 431.22900391 C190.33397223 435.04624542 194.43711193 439.12689318 198.5625 443.1875 C199.46935547 444.05697266 200.37621094 444.92644531 201.31054688 445.82226562 C212.47189863 456.83792896 219.94799661 469.96624007 220.24169922 485.87451172 C220.30532125 502.64453108 215.94716869 515.46093237 204.20703125 527.78515625 C203.47871094 528.51605469 202.75039063 529.24695313 202 530 C201.44699219 530.57621094 200.89398437 531.15242187 200.32421875 531.74609375 C188.56922981 542.97604597 173.96786418 543.53668412 158.71875 543.328125 C138.70868885 542.6581943 125.36893614 527.84623223 112.1875 514.3125 C109.87239164 511.95056994 107.55278713 509.59312148 105.23046875 507.23828125 C104.67495331 506.67408478 104.11943787 506.10988831 103.54708862 505.52859497 C100.79902983 502.75392485 98.03063413 500.07168853 95.05078125 497.54296875 C87.9832513 491.54332205 81.64107198 484.69188664 75.12695312 478.10644531 C66.37622614 469.24598135 66.37622614 469.24598135 57.1328125 460.91015625 C51.05199139 455.46414614 45.43707194 449.48192061 39.69970703 443.67919922 C32.08162679 435.87616484 32.08162679 435.87616484 24.03125 428.53125 C16.97358707 422.53186387 10.63573362 415.68648983 4.12695312 409.10644531 C-4.80361023 400.05322262 -4.80361023 400.05322262 -14.23828125 391.53466797 C-17.48385892 388.70738122 -20.47900648 385.62563184 -23.5 382.5625 C-24.13164062 381.92634766 -24.76328125 381.29019531 -25.4140625 380.63476562 C-26.94505774 379.09217194 -28.47287667 377.54642686 -30 376 C-34.96584362 377.46054224 -39.1395693 379.62269643 -43.625 382.125 C-62.6677764 392.42070539 -83.09425459 398.90122696 -104.25 403.25 C-104.98025391 403.40114258 -105.71050781 403.55228516 -106.46289062 403.70800781 C-119.97378989 406.31713091 -133.41943837 407.33526124 -147.15673828 407.26074219 C-149.49928643 407.25000327 -151.8410682 407.26073029 -154.18359375 407.2734375 C-213.01763805 407.32994106 -268.91292403 382.44830965 -311 342 C-311.54543457 341.48179687 -312.09086914 340.96359375 -312.65283203 340.4296875 C-346.73394015 307.93909778 -368.42343542 264.01592835 -377 218 C-377.24556641 216.70618408 -377.24556641 216.70618408 -377.49609375 215.38623047 C-388.0098291 157.35432142 -373.84705353 94.68684452 -340.73730469 46.14892578 C-338.28006026 42.6659695 -335.67339266 39.3185258 -333 36 C-332.28457031 35.09378906 -331.56914062 34.18757813 -330.83203125 33.25390625 C-325.19063582 26.21464292 -319.18265099 19.56173324 -313 13 C-312.27167969 12.21753906 -311.54335938 11.43507813 -310.79296875 10.62890625 C-304.97173212 4.57006812 -298.53135479 -0.53815599 -291.84716797 -5.59716797 C-290.05481192 -6.95837308 -288.27915099 -8.33925154 -286.50390625 -9.72265625 C-257.13302221 -32.28908237 -221.43430876 -46.17749126 -185 -52 C-184.3282373 -52.11569336 -183.65647461 -52.23138672 -182.96435547 -52.35058594 C-118.89742473 -63.06284377 -48.84405846 -42.27036671 0 0 Z M-180 42 C-180.78922852 42.19867676 -181.57845703 42.39735352 -182.39160156 42.60205078 C-194.35635493 45.69398763 -205.2533589 49.90437368 -216 56 C-216.58894043 56.33290039 -217.17788086 56.66580078 -217.78466797 57.00878906 C-225.39796925 61.37326495 -232.34742359 66.28699201 -239 72 C-239.8559375 72.73347656 -240.711875 73.46695313 -241.59375 74.22265625 C-266.6256487 96.2009649 -284.28609187 129.34783669 -286.87109375 162.81201172 C-288.54907838 191.29325838 -283.94288602 217.93097261 -270 243 C-269.49597656 243.92039062 -268.99195313 244.84078125 -268.47265625 245.7890625 C-250.19472404 277.68683893 -219.8883986 299.76902375 -184.875 309.75 C-184.18374023 309.94875732 -183.49248047 310.14751465 -182.78027344 310.35229492 C-148.71183916 319.59005145 -111.45207335 313.65487749 -80.9609375 296.375 C-57.40848803 282.49771815 -38.28096641 262.45873142 -26 238 C-25.50886719 237.05253906 -25.01773437 236.10507812 -24.51171875 235.12890625 C-21.28451285 228.58276509 -18.88270778 221.97004096 -16.75 215 C-16.50378906 214.20601807 -16.25757813 213.41203613 -16.00390625 212.59399414 C-12.52666266 200.75863845 -11.63353404 189.04359831 -11.6875 176.75 C-11.68998749 176.06891174 -11.69247498 175.38782349 -11.69503784 174.68609619 C-11.8997779 138.36999658 -26.09988089 107.84277641 -50 81 C-50.63164062 80.28328125 -51.26328125 79.5665625 -51.9140625 78.828125 C-73.51606946 55.79867265 -107.51371391 40.16539079 -138.95996094 38.87890625 C-152.89576441 38.46818407 -166.44988367 38.51057856 -180 42 Z " fill="#FEFEFE" transform="translate(380,54)"/>
</svg>
