<?xml version="1.0" encoding="UTF-8"?>
<svg version="1.1" xmlns="http://www.w3.org/2000/svg" width="512" height="512">
<path d="M0 0 C2.27651074 -0.00271454 4.55302059 -0.00627806 6.82952881 -0.01062012 C12.97609297 -0.0196908 19.12258954 -0.01622204 25.26915479 -0.00986195 C31.72126263 -0.00477492 38.17336494 -0.00950083 44.62547302 -0.01263428 C56.14895633 -0.01649796 67.67240528 -0.01030929 79.19588321 -0.0001156 C89.6200245 0.00882046 100.04412123 0.00726401 110.46826172 -0.00195312 C122.6087933 -0.01268307 134.74928997 -0.01662605 146.88982719 -0.0107286 C153.30357713 -0.0076202 159.71729645 -0.00716844 166.13104439 -0.01380157 C172.16154135 -0.01960351 178.19195464 -0.01552619 184.22244263 -0.00401306 C186.42780862 -0.00138179 188.63318173 -0.00210517 190.83854485 -0.00653839 C211.08081613 -0.04345995 230.80707657 0.20728032 246.22827148 15.25878906 C252.93894658 22.37115949 259.15987305 31.27340793 260.22827148 41.25878906 C259.26293945 43.84814453 259.26293945 43.84814453 257.72045898 46.62597656 C257.15246582 47.66463867 256.58447266 48.70330078 255.99926758 49.7734375 C255.06074951 51.43681152 255.06074951 51.43681152 254.10327148 53.13378906 C253.14735107 54.86677246 253.14735107 54.86677246 252.17211914 56.63476562 C250.21060496 60.18739341 248.22147648 63.72384001 246.22827148 67.25878906 C245.65077148 68.28584961 245.07327148 69.31291016 244.47827148 70.37109375 C242.33113174 74.18555841 240.17897123 77.99704695 238.01416016 81.80151367 C232.2816743 91.87901035 226.74554994 102.06228073 221.22827148 112.25878906 C220.56827148 112.25878906 219.90827148 112.25878906 219.22827148 112.25878906 C219.21947212 111.28279251 219.21947212 111.28279251 219.210495 110.28707886 C219.14648793 103.50588 219.06204885 96.7251525 218.96582031 89.94433594 C218.93259635 87.41477682 218.90455659 84.88514401 218.88183594 82.35546875 C218.84824445 78.71615239 218.79592395 75.07750972 218.73999023 71.43847656 C218.73040535 69.74596268 218.73040535 69.74596268 218.72062683 68.01925659 C218.58306818 60.64833821 217.86758785 55.95948488 212.54077148 50.50878906 C206.65436055 45.98673268 199.27437871 45.96480076 192.16456604 45.99809265 C191.28611698 45.9942671 190.40766791 45.99044156 189.50259918 45.98650008 C186.57719166 45.97623213 183.65198269 45.98015038 180.7265625 45.98413086 C178.62178365 45.97978098 176.51700637 45.97459691 174.41223145 45.96864319 C168.70771946 45.95527241 163.00327381 45.95467234 157.29874921 45.95720649 C152.53233113 45.95827739 147.7659264 45.95338983 142.99951118 45.94860107 C131.75340742 45.93751276 120.50733705 45.93706484 109.26123047 45.94311523 C97.66755538 45.94915678 86.07400161 45.9368378 74.48034722 45.91554517 C64.51748716 45.89792183 54.55466569 45.89192893 44.59179062 45.89518291 C38.64530795 45.89699456 32.69891184 45.89437119 26.75244331 45.88046837 C21.16029956 45.86788263 15.56834481 45.86984133 9.97620392 45.88287926 C7.9271914 45.88524285 5.87816554 45.88251815 3.82916832 45.87425613 C1.02554768 45.8637688 -1.77744107 45.8719053 -4.58103943 45.88456726 C-5.78836146 45.87350583 -5.78836146 45.87350583 -7.02007383 45.86222094 C-13.82126303 45.92654965 -19.8126771 47.45762733 -25.64672852 51.00878906 C-31.91378884 57.64449999 -31.19924968 65.36819677 -31.15940857 73.99241638 C-31.1635841 75.39931747 -31.16906282 76.80621519 -31.17572838 78.21310669 C-31.19017304 82.06985038 -31.18594139 85.92638019 -31.17856157 89.78313553 C-31.17382978 93.9461423 -31.18633982 98.1091028 -31.19657898 102.27209473 C-31.21377192 110.42400393 -31.21460599 118.57583607 -31.20936608 126.7277587 C-31.20532418 133.35367572 -31.20676816 139.97956998 -31.21211433 146.60548592 C-31.21323697 148.02019587 -31.21323697 148.02019587 -31.21438228 149.46348583 C-31.21591376 151.37948624 -31.21745211 153.29548666 -31.21899725 155.21148706 C-31.232724 173.17776538 -31.22728329 191.14400015 -31.21581203 209.11027748 C-31.20587874 225.54561476 -31.21882169 241.98083947 -31.24274623 258.41615938 C-31.26713017 275.29429656 -31.27674688 292.1723813 -31.2700935 309.05053574 C-31.26659981 318.52542237 -31.26884329 328.00022243 -31.28634453 337.47509575 C-31.30105765 345.54053707 -31.30171356 353.60583083 -31.28427362 361.67126923 C-31.27575403 365.78571779 -31.27363735 369.89990265 -31.28892517 374.01433754 C-31.3027538 377.78272756 -31.29803303 381.55062751 -31.27868593 385.31898905 C-31.27313941 387.32391385 -31.28721265 389.32886348 -31.30204004 391.33374113 C-31.23424397 399.61940892 -30.48734606 405.54317151 -24.39672852 411.63378906 C-18.62297333 415.20801846 -13.34229011 415.55071603 -6.75198364 415.5262146 C-5.8541201 415.53074571 -4.95625656 415.53527683 -4.03118503 415.53994524 C-1.02814303 415.55258685 1.97471756 415.55096903 4.9777832 415.54931641 C7.13315056 415.55530176 9.28851578 415.56210732 11.44387817 415.56967163 C17.29512456 415.58733705 23.14631244 415.59202721 28.99758291 415.5933032 C32.65375089 415.59472493 36.30990399 415.5989949 39.96606827 415.60429764 C52.72258702 415.62279893 65.47906398 415.63096803 78.2355957 415.62939453 C90.12465676 415.62819275 102.01353639 415.64930213 113.90255153 415.68088186 C124.11248817 415.70703477 134.32236552 415.71776225 144.5323354 415.71648371 C150.62919501 415.71597384 156.72589334 415.7216714 162.82271957 415.74283981 C168.5568654 415.76220569 174.2906958 415.76235773 180.02485275 415.74780655 C182.12750204 415.7457154 184.23017099 415.75043752 186.33278656 415.76252747 C189.20708097 415.77798219 192.08028804 415.76867007 194.95455933 415.75326538 C196.19747909 415.76869607 196.19747909 415.76869607 197.46550834 415.78443849 C202.61511082 415.72360437 206.13791406 414.69647943 210.60898793 412.11640513 C212.22827148 411.25878906 212.22827148 411.25878906 214.22827148 411.25878906 C214.9144718 409.93540274 215.57613609 408.59928959 216.22827148 407.25878906 C216.58163574 406.60313965 216.935 405.94749023 217.29907227 405.27197266 C218.69096041 400.75839317 218.34528556 396.42494768 218.22045898 391.73535156 C218.20178366 389.64162655 218.18625627 387.54787152 218.17358398 385.45410156 C218.14705077 382.16496517 218.10317755 378.88062344 218.00561523 375.59277344 C217.49828752 357.20765819 217.49828752 357.20765819 221.79077148 352.37207031 C224.8897613 350.59414864 227.87606828 349.46600487 231.22827148 348.25878906 C242.58922387 339.83641493 249.37563694 328.46013291 255.90405273 316.1887207 C256.3075293 315.43582764 256.71100586 314.68293457 257.12670898 313.90722656 C257.4842627 313.22837402 257.84181641 312.54952148 258.21020508 311.85009766 C259.22827148 310.25878906 259.22827148 310.25878906 261.22827148 309.25878906 C261.32195844 327.41834455 261.39236953 345.57783679 261.43552017 363.73758221 C261.45609359 372.17059627 261.48411355 380.60345965 261.5300293 389.03637695 C261.5700578 396.39158305 261.59574218 403.74667995 261.60462546 411.10199195 C261.6098133 414.99202333 261.62189575 418.88174248 261.65119171 422.7716732 C261.67861495 426.44315874 261.68666311 430.11420744 261.68070221 433.78578568 C261.68230423 435.75500859 261.70368475 437.72418541 261.72595215 439.69328308 C261.65619103 454.97173565 256.77827547 467.99102161 246.40014648 479.18847656 C233.34848569 491.62980789 217.65914551 494.42352122 200.27435303 494.39250183 C199.324219 494.39476739 198.37408497 494.39703294 197.39515901 494.39936715 C194.23893123 494.40565342 191.08274698 494.40488127 187.92651367 494.40405273 C185.65221603 494.40704758 183.3779189 494.41045086 181.10362244 494.41423035 C174.94437739 494.42304133 168.78514624 494.42540724 162.6258955 494.42604613 C158.77267247 494.42675827 154.91945294 494.42889569 151.06623077 494.43154335 C138.30258434 494.44031068 125.53894942 494.44496426 112.77530071 494.44421288 C112.0886629 494.44417292 111.40202509 494.44413296 110.69458008 494.4440918 C110.0070942 494.44405092 109.31960832 494.44401004 108.61128953 494.44396792 C97.4763103 494.44356169 86.34136492 494.4531279 75.20639548 494.46723016 C63.74542126 494.48162963 52.28447037 494.48831569 40.82348561 494.48763639 C34.4001382 494.48738209 27.97682913 494.4901956 21.55348969 494.50081444 C15.50909631 494.51053462 9.46477764 494.5105478 3.42038155 494.50329781 C1.21059878 494.50225684 -0.99918873 494.50458565 -3.20896339 494.51065826 C-34.20803568 494.59028289 -34.20803568 494.59028289 -45.20922852 488.50878906 C-46.22122314 487.97318359 -46.22122314 487.97318359 -47.25366211 487.42675781 C-59.28211935 480.8929256 -66.78971641 471.01394054 -71.77172852 458.25878906 C-74.25476466 449.59798239 -74.05554499 440.79878274 -74.03242493 431.8755188 C-74.03544885 430.21726907 -74.03933954 428.55902073 -74.04401749 426.90077484 C-74.05427513 422.36307881 -74.05212138 417.825462 -74.0478369 413.28775954 C-74.04536563 408.38649254 -74.05438881 403.48524442 -74.06187439 398.58398438 C-74.0746121 388.98935553 -74.07641625 379.39475469 -74.07407413 369.80011882 C-74.07228983 362.00011343 -74.07404301 354.20011653 -74.07829857 346.40011215 C-74.07889376 345.28923651 -74.07948895 344.17836086 -74.08010217 343.03382232 C-74.08131394 340.77695243 -74.08252808 338.52008255 -74.08374455 336.26321267 C-74.09461645 315.10687241 -74.09245921 293.95054811 -74.0863597 272.79420696 C-74.08119046 253.44861571 -74.09244681 234.10307481 -74.11145792 214.75749351 C-74.13083928 194.88245611 -74.13909182 175.00744253 -74.13533467 155.13239563 C-74.13342313 143.97846626 -74.13590565 132.82457976 -74.15004921 121.67065811 C-74.16196772 112.17555516 -74.16336255 102.68052146 -74.15125904 93.18541755 C-74.1453738 88.34342929 -74.14426119 83.50156766 -74.15626144 78.65958786 C-74.16713152 74.22196378 -74.16400351 69.78457189 -74.14999976 65.34695862 C-74.14735595 63.74678554 -74.1497094 62.1465942 -74.15773562 60.54643907 C-74.23424777 44.14642163 -71.4266324 28.41594624 -59.74047852 16.06347656 C-42.20748174 -0.00843715 -22.4344535 -0.04514311 0 0 Z M34.47827148 443.94628906 C31.82948202 447.40943128 30.56500307 450.91495167 30.22827148 455.25878906 C31.07867071 460.83362841 32.88402735 463.7044075 37.22827148 467.25878906 C42.53522462 470.61042063 46.97639369 470.69289728 53.05395508 470.6628418 C54.02709152 470.66970505 55.00022797 470.6765683 56.00285339 470.68363953 C59.21095485 470.70189942 62.41856684 470.6980707 65.62670898 470.69238281 C67.86341511 470.69694534 70.10011983 470.70225113 72.33682251 470.70826721 C77.02237649 470.71719701 81.70776001 470.71477698 86.39331055 470.70483398 C92.3876958 470.69335107 98.38149138 470.71354658 104.37579918 470.74275112 C108.99473793 470.76112892 113.61353583 470.76081735 118.23250198 470.7551136 C120.44202119 470.75496055 122.65155005 470.76099172 124.86103439 470.77340508 C127.95566137 470.78834075 131.04920493 470.77761799 134.14379883 470.76049805 C135.05003494 470.77016602 135.95627106 470.77983398 136.88996887 470.78979492 C142.7880542 470.72172923 147.31423853 469.62749516 152.22827148 466.25878906 C155.75394234 462.37151094 157.03280152 458.71095221 157.38842773 453.56738281 C157.10860722 449.53387254 155.65897777 446.4563253 153.22827148 443.25878906 C148.98030694 439.87775605 145.4909122 438.14029456 140.0735321 438.11834717 C138.80560822 438.10978195 138.80560822 438.10978195 137.5120697 438.1010437 C136.58785721 438.09992584 135.66364471 438.09880798 134.71142578 438.09765625 C133.73551483 438.09269135 132.75960388 438.08772644 131.75411987 438.08261108 C128.52023619 438.06798624 125.28640157 438.06118684 122.05249023 438.05566406 C119.80670673 438.0499128 117.56092324 438.04415506 115.31513977 438.03839111 C110.60332002 438.02788015 105.89151733 438.02203813 101.1796875 438.01855469 C95.14366538 438.01307035 89.10786889 437.98904383 83.07191753 437.96058273 C78.43163902 437.94195398 73.79141482 437.93675062 69.15110207 437.93521881 C66.92597025 437.93219221 64.70083939 437.92416345 62.47574425 437.91103363 C59.36142211 437.89396882 56.24765078 437.89585466 53.13330078 437.90234375 C52.21516098 437.89312897 51.29702118 437.88391418 50.35105896 437.87442017 C43.64198595 437.91818497 39.41480269 439.12195175 34.47827148 443.94628906 Z " fill="#000000" transform="translate(123.771728515625,8.7412109375)"/>
<path d="M0 0 C7.77239234 5.61212447 13.31941699 12.04997605 15.60546875 21.50390625 C15.98875811 23.92887555 16.20132806 26.23362288 16.25 28.6875 C16.27578125 29.45449219 16.3015625 30.22148438 16.328125 31.01171875 C15.34730922 39.94414817 11.4613 47.44887231 7.125 55.1875 C6.55201172 56.22777344 5.97902344 57.26804688 5.38867188 58.33984375 C0.94695962 66.37861479 -3.58138773 74.36937299 -8.12255859 82.35229492 C-12.00373965 89.18832054 -15.77478246 96.07790106 -19.5 103 C-23.74400123 110.88608882 -28.0706437 118.71650315 -32.5 126.5 C-37.56285695 135.39837779 -42.48129942 144.36658445 -47.34033203 153.37768555 C-51.69163072 161.44486978 -56.11998156 169.46571773 -60.58789062 177.46875 C-63.43937151 182.58011823 -66.28184184 187.69649917 -69.125 192.8125 C-69.755271 193.94623047 -70.38554199 195.07996094 -71.03491211 196.24804688 C-74.44704049 202.38849032 -77.84924138 208.53428115 -81.23828125 214.6875 C-81.5903363 215.32652756 -81.94239136 215.96555511 -82.30511475 216.62394714 C-83.99487346 219.69154393 -85.68334455 222.75983769 -87.36962891 225.8293457 C-90.64109443 231.77255063 -93.93827486 237.70052156 -97.28515625 243.6015625 C-97.92461182 244.73029785 -98.56406738 245.8590332 -99.22290039 247.02197266 C-104.44386692 255.77116206 -111.08132179 261.26215662 -121 264 C-131.65653678 265.07928677 -139.46341674 263.92889611 -149 259 C-150.5051642 258.26157252 -152.01179643 257.52613321 -153.51953125 256.79296875 C-162.35593143 252.46589704 -171.08986156 247.9448836 -179.77490234 243.32250977 C-185.384779 240.34671225 -191.03225503 237.45090086 -196.6953125 234.578125 C-199.06687991 233.37148594 -201.43821525 232.16439165 -203.80953979 230.95727539 C-205.37970949 230.16011015 -206.95124099 229.36562091 -208.52420044 228.57397461 C-233.67429312 215.91305121 -233.67429312 215.91305121 -238.875 202.875 C-241.4079805 194.09298977 -241.16405542 184.53237433 -237.25 176.2421875 C-232.22130223 167.22196087 -226.21051661 162.53021047 -216.625 158.625 C-200.83512613 155.90260795 -188.963373 162.27680782 -175.25 169.25 C-173.91383769 169.92370111 -172.57749223 170.59703909 -171.2409668 171.27001953 C-163.27207299 175.29205987 -155.34779843 179.38946278 -147.51953125 183.6796875 C-144.98292553 185.09471521 -144.98292553 185.09471521 -142 186 C-141.72325439 185.2766748 -141.44650879 184.55334961 -141.16137695 183.80810547 C-140.05051142 181.12213209 -138.80229571 178.62451062 -137.41796875 176.0703125 C-136.90500244 175.12236816 -136.39203613 174.17442383 -135.86352539 173.19775391 C-135.03389282 171.67674072 -135.03389282 171.67674072 -134.1875 170.125 C-133.6092749 169.06071777 -133.0310498 167.99643555 -132.43530273 166.89990234 C-128.02635557 158.81295089 -123.50541747 150.79346264 -118.94799805 142.78955078 C-114.85847616 135.58225035 -110.90832914 128.30692318 -107 121 C-102.06516052 111.77393646 -97.00300177 102.63405275 -91.82421875 93.54296875 C-87.95960504 86.74237423 -84.20644998 79.8879354 -80.5 73 C-75.74201283 64.15873496 -70.86412604 55.39562834 -65.88818359 46.67529297 C-63.03810538 41.66374026 -60.24866977 36.62813398 -57.5390625 31.5390625 C-56.96736328 30.46720703 -56.39566406 29.39535156 -55.80664062 28.29101562 C-54.7222521 26.24944327 -53.64488284 24.20411955 -52.57617188 22.15429688 C-46.83795503 11.35513651 -39.65054685 0.4890608 -27.45703125 -3.52734375 C-18.09446977 -5.32840884 -8.24049847 -5.09537489 0 0 Z " fill="#000000" transform="translate(446,74)"/>
</svg>
