<svg xmlns="http://www.w3.org/2000/svg" width="24" height="24" viewBox="0 0 24 24" fill="none" stroke="currentColor" stroke-width="2" stroke-linecap="round" stroke-linejoin="round">
  <path d="M7 11v8a1 1 0 0 1-1 1H4a1 1 0 0 1-1-1v-7a1 1 0 0 1 1-1h3a1 1 0 0 1 1 1v0z"/>
  <path d="M14 10v9a1 1 0 0 1-1 1h-2a1 1 0 0 1-1-1v-9a1 1 0 0 1 1-1h2a1 1 0 0 1 1 1z"/>
  <path d="M21 12v7a1 1 0 0 1-1 1h-2a1 1 0 0 1-1-1v-7a1 1 0 0 1 1-1h2a1 1 0 0 1 1 1v0z"/>
  <path d="M12 4c1.5-2 4.5-2 6 0"/>
  <path d="M6 4c1.5-2 4.5-2 6 0"/>
</svg>
