<svg xmlns="http://www.w3.org/2000/svg" width="512" height="512" viewBox="0 0 512 512" version="1.1"><path d="" stroke="none" fill="#080404" fill-rule="evenodd"/><path d="M 234.500 1.109 C 183.915 8.401, 138.981 43.437, 119.056 91.124 C 103.367 128.672, 104.236 172.810, 121.402 210.325 C 130.269 229.704, 145.697 249.437, 162.501 262.894 C 166.351 265.977, 169.528 268.950, 169.560 269.500 C 169.592 270.050, 165.945 271.920, 161.456 273.656 C 130.281 285.708, 100.282 305.578, 74.969 330.940 C 48.602 357.357, 30.742 384.431, 17.172 418.551 C 6.943 444.270, 0 478.399, 0 502.961 L 0 512 19.875 512 L 39.750 512 40.375 508.875 C 40.719 507.156, 41 502.827, 41 499.253 C 41 490.642, 43.460 473.965, 46.636 461.053 C 56.253 421.945, 75.033 388.774, 103.904 359.904 C 137.907 325.900, 178.314 305.653, 226.500 298.473 C 241.254 296.275, 270.734 296.274, 285.500 298.471 C 333.757 305.652, 374.020 325.828, 408.096 359.904 C 436.967 388.774, 455.747 421.945, 465.364 461.053 C 468.540 473.965, 471 490.642, 471 499.253 C 471 502.827, 471.283 507.165, 471.629 508.895 L 472.258 512.041 492.379 511.770 L 512.500 511.500 512.755 500 C 512.929 492.149, 512.696 488.976, 512.020 490 C 511.279 491.124, 511.027 490.530, 511.015 487.628 C 510.960 473.740, 503.012 439.721, 495.057 419.327 C 481.754 385.223, 463.520 357.457, 437.031 330.969 C 411.365 305.304, 383.108 286.482, 351.694 274.126 C 346.623 272.132, 342.456 270.050, 342.433 269.500 C 342.409 268.950, 344.135 267.236, 346.268 265.691 C 353.253 260.631, 366.159 247.669, 372.990 238.853 C 389.420 217.647, 399.455 193.734, 403.032 167.262 C 404.745 154.589, 403.753 128.310, 401.132 116.911 C 387.014 55.507, 337.634 9.566, 276.633 1.082 C 267.635 -0.170, 243.261 -0.154, 234.500 1.109 M 249 40.620 C 220.665 43.593, 198.985 53.380, 180.764 71.423 C 159.684 92.297, 148.687 118.549, 148.687 148 C 148.687 189.896, 172.062 226.818, 210.033 244.900 C 248.002 262.980, 292.295 257.531, 324.303 230.841 C 340.526 217.313, 351.909 200.618, 358.314 180.958 C 365.064 160.240, 365.064 135.760, 358.314 115.042 C 346.191 77.830, 314.275 49.534, 276.500 42.507 C 268.647 41.046, 254.311 40.062, 249 40.620 M 0.378 501 C 0.378 507.325, 0.541 509.913, 0.739 506.750 C 0.937 503.587, 0.937 498.413, 0.739 495.250 C 0.541 492.087, 0.378 494.675, 0.378 501" stroke="none" fill="#040404" fill-rule="evenodd"/></svg>