<?xml version="1.0" encoding="UTF-8"?>
<svg version="1.1" xmlns="http://www.w3.org/2000/svg" width="512" height="512">
<path d="M0 0 C1.21478027 0.20399414 2.42956055 0.40798828 3.68115234 0.61816406 C40.04413568 6.83475472 74.86717367 17.69010673 108 34 C108.83821289 34.41217773 109.67642578 34.82435547 110.54003906 35.24902344 C129.41788135 44.63876383 147.23617427 55.86267842 164.06835938 68.546875 C165.29786571 69.47180191 166.53299337 70.38933729 167.77539062 71.296875 C174.13143993 75.94139027 179.2694244 80.04976173 181 88 C181.94613708 95.11128839 181.36157572 101.1547211 177 107 C171.87182213 112.57518611 166.83281704 114.97614296 159.25 115.4375 C151.06222431 115.2172011 145.21154541 111.15599712 139.125 106 C111.85730061 82.90670964 76.84220091 66.59613487 43 56 C42.12569336 55.72462402 41.25138672 55.44924805 40.35058594 55.16552734 C-40.94465847 29.91865155 -129.03280999 38.91806314 -204.359375 78.23583984 C-221.22949145 87.29560433 -237.52939573 97.89585662 -252.31640625 110.08203125 C-258.69822524 114.6431275 -264.37239794 115.83951595 -272 115 C-278.1913302 113.86418043 -281.55868727 110.87225463 -285.5546875 106.1328125 C-289.48028497 100.3399038 -289.69428693 94.80213542 -289 88 C-287.17884795 78.96887714 -280.01441265 74.15180879 -273 69 C-272.2874707 68.47245117 -271.57494141 67.94490234 -270.84082031 67.40136719 C-222.78647196 32.10986231 -166.85837323 9.19912785 -108 0 C-106.54907959 -0.24556641 -106.54907959 -0.24556641 -105.06884766 -0.49609375 C-71.53667295 -6.03425193 -33.4717442 -5.84336346 0 0 Z " fill="#000000" transform="translate(310,67)"/>
<path d="M0 0 C0.90893005 -0.00983917 1.81786011 -0.01967834 2.7543335 -0.02981567 C23.19983357 -0.20542841 43.07846704 -0.04775344 63.1640625 4.23828125 C64.27265625 4.47434082 65.38125 4.71040039 66.5234375 4.95361328 C88.63073374 9.84636677 110.29721586 17.38436268 130.23486328 28.19335938 C132.32553276 29.3257392 134.43020968 30.42956491 136.53515625 31.53515625 C178.53684881 53.91410553 178.53684881 53.91410553 185.1640625 70.23828125 C186.03196023 77.86770784 185.94533929 84.96751014 181.1640625 91.23828125 C176.26967023 96.36031968 170.70629089 98.99884595 163.64453125 99.37109375 C154.8963786 98.91420098 149.03448911 94.05081265 142.38256836 88.73510742 C132.87236145 81.14088883 122.85539728 75.01416702 112.1640625 69.23828125 C111.17768799 68.69179932 111.17768799 68.69179932 110.17138672 68.13427734 C87.54286966 55.6513962 61.78150857 48.21142614 36.1640625 45.23828125 C35.21917969 45.12742188 34.27429688 45.0165625 33.30078125 44.90234375 C-7.42484388 40.99352889 -49.87858376 48.68593063 -85.94580078 68.21728516 C-87.8558837 69.2490556 -89.7803339 70.24966454 -91.70703125 71.25 C-101.23627823 76.30290422 -109.78142271 82.39037728 -118.36328125 88.90625 C-121.40251754 91.19117704 -124.46384013 93.43258059 -127.58984375 95.59765625 C-128.28537354 96.08073242 -128.98090332 96.56380859 -129.69750977 97.06152344 C-135.02608553 99.99379141 -140.79892655 99.78914087 -146.5234375 98.17578125 C-152.40409536 95.87555932 -156.40904531 92.49369149 -159.7734375 87.17578125 C-161.87781724 81.21998952 -162.07246665 73.91664322 -160.0625 67.9375 C-148.60970891 47.67174556 -118.20943411 33.87735491 -97.8359375 24.23828125 C-97.13629883 23.90441406 -96.43666016 23.57054687 -95.71582031 23.2265625 C-66.13953656 9.22309754 -32.85400303 0.2952508 0 0 Z " fill="#000000" transform="translate(243.8359375,159.76171875)"/>
<path d="M0 0 C6.49986282 5.47004081 11.90168352 10.26721591 12.87109375 19.13916016 C13.14428061 25.73703679 12.57251289 30.94327305 8.5625 36.31494141 C3.66810773 41.43697983 -1.89527161 44.07550611 -8.95703125 44.44775391 C-17.76419235 43.98777929 -22.86501333 39.83904733 -29.125 34.00244141 C-49.49414781 15.27897169 -77.26771734 7.45410746 -104.41943359 8.22607422 C-129.97850362 9.35158855 -153.79617237 20.82368485 -172.05078125 38.33447266 C-177.64420624 42.97582531 -183.29258154 44.48736779 -190.4375 44.31494141 C-197.18241444 43.10237252 -202.52265253 40.21956574 -206.69140625 34.63525391 C-210.13834016 28.84632658 -210.28235285 22.88700729 -209.4375 16.31494141 C-205.67981391 2.10541322 -187.65506367 -8.11148393 -175.88574219 -15.22802734 C-119.08839255 -47.97837197 -50.45631629 -41.62354102 0 0 Z " fill="#000000" transform="translate(354.4375,291.68505859375)"/>
<path d="M0 0 C8.04495995 7.21112533 13.32119682 17.92789532 14.0859375 28.671875 C14.3575139 42.26498858 11.2330352 53.36185707 1.84765625 63.48046875 C-8.53485152 73.4180119 -19.692931 75.82739256 -33.58984375 75.6015625 C-44.99556676 75.13100619 -54.60295831 69.26101342 -62.40234375 61.19921875 C-71.3376048 50.69449069 -72.88317397 38.57389989 -72.15234375 25.32421875 C-70.37543916 14.31644543 -63.89585832 4.14913967 -55.15234375 -2.67578125 C-36.81823056 -13.93137598 -17.13633142 -13.34208018 0 0 Z " fill="#000000" transform="translate(285.15234375,372.67578125)"/>
</svg>
