<svg xmlns="http://www.w3.org/2000/svg" width="900" height="450" viewBox="0 0 900 450" version="1.1"><path d="" stroke="none" fill="#080404" fill-rule="evenodd"/><path d="M 254.848 154.322 L 244.196 159.500 253.160 178.592 L 262.124 197.683 255.852 210.563 C 248.028 226.631, 243.071 232.232, 235.216 233.883 C 231.497 234.665, 228.571 234.688, 225.334 233.963 C 222.804 233.396, 220.638 233.060, 220.520 233.216 C 219.540 234.510, 209.933 256.266, 210.216 256.549 C 211.190 257.523, 222.898 260, 226.529 260 C 234.794 260, 240.935 257.279, 247.261 250.814 C 252.138 245.830, 254.440 242.111, 260.972 228.662 L 268.823 212.500 274.731 225 C 277.980 231.875, 282.136 240.762, 283.967 244.750 L 287.296 252 301.148 252 C 310.219 252, 315 251.635, 315 250.942 C 315 250.361, 312.494 244.469, 309.431 237.851 L 303.862 225.816 306.653 219.408 C 308.189 215.884, 309.685 213, 309.978 213 C 310.272 213, 314.567 221.662, 319.523 232.250 L 328.535 251.500 342.860 251.778 C 351.260 251.941, 357.044 251.676, 356.843 251.138 C 356.654 250.634, 345.925 227.442, 333 199.602 C 311.976 154.317, 309.284 149.034, 307.449 149.461 C 304.184 150.221, 286 159.050, 286 159.875 C 286 160.287, 289.865 168.873, 294.588 178.957 L 303.177 197.290 300.476 203.645 C 298.990 207.140, 297.464 210, 297.084 210 C 296.703 210, 290.057 196.387, 282.314 179.750 C 274.572 163.113, 267.621 149.420, 266.868 149.322 C 266.116 149.224, 260.707 151.474, 254.848 154.322 M 626.750 161.680 L 617 166.309 617 173.155 L 617 180 614 180 L 611 180 611 186.500 L 611 193 613.985 193 L 616.970 193 617.235 222.250 L 617.500 251.500 627.750 251.785 L 638 252.070 638 222.535 L 638 193 643 193 L 648 193 648 186.500 L 648 180 643 180 L 638 180 638 168.500 C 638 162.175, 637.663 157.012, 637.250 157.026 C 636.837 157.040, 632.112 159.135, 626.750 161.680 M 668.250 161.645 L 659 166.118 659 173.059 L 659 180 656 180 L 653 180 653 186.500 L 653 193 655.985 193 L 658.970 193 659.235 222.250 L 659.500 251.500 669.750 251.785 L 680 252.070 680 222.535 L 680 193 685 193 L 690 193 690 186.500 L 690 180 685 180 L 680 180 680 168.500 C 680 159.921, 679.683 157.022, 678.750 157.086 C 678.063 157.133, 673.337 159.185, 668.250 161.645 M 381 179.117 C 377.425 179.503, 372.025 180.647, 369 181.659 L 363.500 183.500 363.208 191.250 C 363.047 195.512, 363.105 199, 363.337 199 C 363.569 199, 366.175 197.915, 369.129 196.589 C 376.135 193.444, 381.810 192.602, 386.851 193.960 C 393.321 195.702, 396.989 203, 391.394 203 C 386.826 203, 376.691 206.067, 370.648 209.278 C 359.764 215.061, 354.302 226.131, 356.861 237.218 C 360.499 252.978, 377.743 258.061, 391.633 247.467 L 394.873 244.995 395.186 248.248 L 395.500 251.500 405 251.500 L 414.500 251.500 414.500 223.500 C 414.500 192.033, 414.197 190.217, 408.001 184.620 C 402.366 179.529, 393.647 177.752, 381 179.117 M 452.500 180.141 C 451.400 180.761, 449.262 182.417, 447.750 183.821 L 445 186.374 445 183.187 L 445 180 435.500 180 L 426 180 426 216 L 426 252 436 252 L 446 252 446 226.452 L 446 200.905 448.622 198.475 C 451.919 195.419, 457.088 194.410, 461.962 195.871 C 464.036 196.492, 466.035 197, 466.405 197 C 466.775 197, 466.948 193.063, 466.789 188.250 L 466.500 179.500 460.500 179.257 C 457.200 179.123, 453.600 179.521, 452.500 180.141 M 498.500 180.842 C 496.850 181.850, 494.825 183.494, 494 184.494 C 492.586 186.208, 492.471 186.146, 491.992 183.406 L 491.485 180.500 481.730 180.214 L 471.975 179.927 472.237 215.714 L 472.500 251.500 482.733 251.785 L 492.967 252.070 493.233 225.824 L 493.500 199.578 497 197.200 C 499.793 195.302, 501.409 194.916, 505 195.290 C 507.475 195.547, 510.288 196.085, 511.250 196.486 C 512.842 197.148, 513 196.391, 513 188.107 L 513 179 507.250 179.004 C 503.436 179.006, 500.490 179.625, 498.500 180.842 M 567 180.252 C 565.075 180.889, 561.167 183.734, 558.316 186.574 C 550.959 193.902, 549.708 198.708, 550.187 217.817 C 550.508 230.610, 550.860 233.181, 552.919 237.794 C 557.636 248.353, 567.403 253.592, 580.873 252.787 C 590.024 252.240, 595.260 249.850, 600.359 243.894 C 606.033 237.265, 607.448 231.671, 607.415 216 C 607.399 208.575, 606.860 200.693, 606.218 198.485 C 604.277 191.816, 599.572 185.419, 594.358 182.364 C 590.125 179.883, 588.443 179.526, 580.031 179.324 C 574.789 179.197, 568.925 179.615, 567 180.252 M 520 216.035 L 520 252.070 530.250 251.785 L 540.500 251.500 540.763 215.750 L 541.025 180 530.513 180 L 520 180 520 216.035 M 575.321 194.167 C 571.485 196.060, 570.841 199.652, 571.181 217.272 C 571.465 231.984, 571.714 234.032, 573.449 235.947 C 576.229 239.014, 581.620 238.416, 584.356 234.737 C 588.216 229.544, 587.694 198.480, 583.689 195.157 C 581.699 193.505, 577.636 193.025, 575.321 194.167 M 388.643 218.107 C 380.213 220.088, 376.133 224.777, 377.485 230.933 C 379.012 237.883, 388.029 238.986, 391.954 232.703 C 393.499 230.229, 394.716 216.949, 393.384 217.100 C 392.898 217.156, 390.764 217.609, 388.643 218.107 M 295.713 275.621 C 295.321 276.013, 295 281.883, 295 288.667 L 295 301 298.530 301 L 302.060 301 301.780 288.250 L 301.500 275.500 298.963 275.204 C 297.567 275.041, 296.104 275.229, 295.713 275.621 M 311 288 L 311 301 314.454 301 L 317.909 301 318.204 294.332 L 318.500 287.665 323.500 294.307 C 327.518 299.645, 329.040 300.955, 331.250 300.975 L 334 301 334 288 L 334 275 331.044 275 L 328.088 275 327.794 282.079 L 327.500 289.159 322.124 282.079 C 317.657 276.196, 316.263 275, 313.874 275 L 311 275 311 288 M 340 278 C 340 280.762, 340.278 281, 343.500 281 L 347 281 347 291 L 347 301 350.500 301 L 354 301 354 291 L 354 281 357.500 281 C 360.722 281, 361 280.762, 361 278 L 361 275 350.500 275 L 340 275 340 278 M 367 288 L 367 301 376.500 301 L 386 301 386 298 L 386 295 379.500 295 C 373.667 295, 373 294.795, 373 293 C 373 291.222, 373.667 291, 379 291 L 385 291 385 288 L 385 285 379 285 C 373.667 285, 373 284.778, 373 283 C 373 281.205, 373.667 281, 379.500 281 L 386 281 386 278 L 386 275 376.500 275 L 367 275 367 288 M 394.750 275.576 C 394.337 275.992, 394 281.883, 394 288.667 L 394 301 397.500 301 C 400.917 301, 401 300.905, 401 297 C 401 293.845, 401.373 293, 402.764 293 C 403.743 293, 405.628 294.779, 407 297 C 409.186 300.537, 409.914 301, 413.293 301 L 417.113 301 415.307 297.923 C 414.313 296.231, 412.941 294.379, 412.258 293.808 C 411.296 293.003, 411.578 292.102, 413.508 289.808 C 416.659 286.064, 416.691 281.914, 413.597 278.318 C 411.411 275.776, 410.484 275.492, 403.347 275.171 C 399.031 274.977, 395.163 275.159, 394.750 275.576 M 424 288 L 424 301 426.956 301 L 429.912 301 430.206 293.793 L 430.500 286.587 435.990 293.793 C 440.466 299.669, 441.989 301, 444.240 301 L 447 301 447 288 L 447 275 444.044 275 L 441.088 275 440.794 282.172 L 440.500 289.344 435.054 282.172 C 430.577 276.276, 429.109 275, 426.804 275 L 424 275 424 288 M 458.116 286.920 C 455.302 293.476, 453 299.326, 453 299.920 C 453 300.514, 454.373 301, 456.052 301 C 458.544 301, 459.296 300.450, 460.150 298 C 461.116 295.228, 461.561 295, 466 295 C 470.439 295, 470.884 295.228, 471.850 298 C 472.745 300.566, 473.405 301, 476.409 301 L 479.922 301 475.379 290.250 C 472.881 284.337, 470.434 278.488, 469.943 277.250 C 469.302 275.637, 468.226 275, 466.141 275 C 463.378 275, 462.975 275.598, 458.116 286.920 M 480 278 C 480 280.762, 480.278 281, 483.500 281 L 487 281 487 291 L 487 301 490.500 301 L 494 301 494 291 L 494 281 497.500 281 C 500.722 281, 501 280.762, 501 278 L 501 275 490.500 275 L 480 275 480 278 M 508 288 L 508 301 511 301 L 514 301 514 288 L 514 275 511 275 L 508 275 508 288 M 529.418 275.969 C 525.296 277.636, 522 282.816, 522 287.626 C 522 296.205, 526.738 301.004, 535.200 300.996 C 542.741 300.990, 549 295.065, 549 287.933 C 549 284.333, 545.820 278.862, 542.580 276.886 C 539.379 274.934, 533.064 274.494, 529.418 275.969 M 557 288 L 557 301 559.956 301 L 562.912 301 563.206 293.978 L 563.500 286.956 568.849 293.978 C 573.329 299.860, 574.673 301, 577.129 301 L 580.060 301 579.780 288.250 L 579.500 275.500 576.297 275.190 L 573.094 274.880 572.797 281.690 L 572.500 288.500 567.500 281.791 C 563.483 276.401, 561.960 275.074, 559.750 275.041 L 557 275 557 288 M 594.538 278.250 C 593.790 280.038, 591.338 285.740, 589.089 290.922 C 586.840 296.105, 585 300.492, 585 300.672 C 585 300.853, 586.531 301, 588.402 301 C 591.283 301, 591.965 300.541, 592.850 298 C 593.818 295.225, 594.258 295, 598.729 295 C 603.180 295, 603.651 295.237, 604.694 298 C 605.615 300.441, 606.402 301, 608.913 301 C 610.611 301, 612 300.684, 612 300.297 C 612 299.910, 609.676 294.060, 606.836 287.297 C 601.924 275.600, 601.531 275, 598.785 275 C 596.473 275, 595.627 275.648, 594.538 278.250 M 617.667 275.667 C 617.300 276.033, 617 281.883, 617 288.667 L 617 301 626.500 301 L 636 301 636 298 L 636 295 630 295 L 624 295 624 285 L 624 275 621.167 275 C 619.608 275, 618.033 275.300, 617.667 275.667 M 401 284 C 401 286.995, 401.151 287.108, 404.750 286.810 C 408.001 286.541, 408.500 286.167, 408.500 284 C 408.500 281.833, 408.001 281.459, 404.750 281.190 C 401.151 280.892, 401 281.005, 401 284 M 530.073 283.635 C 527.709 286.640, 527.519 288.218, 529.150 291.316 C 530.668 294.201, 531.941 294.966, 535.250 294.985 C 541.169 295.018, 544.114 287.646, 539.961 283.189 C 537.102 280.120, 532.680 280.320, 530.073 283.635 M 597.196 286.868 C 596.166 289.822, 596.243 290, 598.552 290 C 601.328 290, 601.470 289.476, 599.609 286.118 L 598.288 283.735 597.196 286.868 M 464.607 286.582 C 463.593 289.225, 463.909 290, 466 290 C 467.100 290, 468 289.587, 468 289.082 C 468 287.438, 466.805 285, 466 285 C 465.568 285, 464.941 285.712, 464.607 286.582" stroke="none" fill="#040404" fill-rule="evenodd"/></svg>