<svg xmlns="http://www.w3.org/2000/svg" width="512" height="512" viewBox="0 0 512 512" version="1.1"><path d="" stroke="none" fill="#080404" fill-rule="evenodd"/><path d="M 175.497 56.100 C 162.298 62.133, 143.963 70.497, 134.750 74.686 C 125.538 78.875, 118.009 82.797, 118.021 83.401 C 118.033 84.005, 132.586 118.924, 150.363 160.997 L 182.684 237.494 180.643 242.497 C 176.629 252.333, 160.345 283.685, 153.981 293.829 C 134.533 324.825, 105.919 354.794, 88.296 362.622 C 78.636 366.913, 67.291 369.223, 52.649 369.879 L 38.798 370.500 19.890 410.990 C 9.491 433.260, 0.729 452.279, 0.419 453.255 C -0.031 454.672, 1.335 455.731, 7.178 458.499 C 41.595 474.805, 80.928 466.441, 110.500 436.528 C 121.287 425.617, 128.011 416.748, 138.572 399.500 C 146.972 385.781, 159.972 359.753, 167.289 342 C 197.063 269.770, 196.777 270.413, 197.924 273.017 C 198.526 274.383, 214.248 311.500, 232.862 355.500 L 266.705 435.500 314.852 435.760 C 347.235 435.934, 363 435.684, 363 434.994 C 363 434.430, 351.996 408.043, 338.546 376.355 L 314.092 318.740 326.704 288.870 C 333.640 272.442, 339.596 259, 339.939 259 C 340.282 259, 357.423 298.819, 378.031 347.487 L 415.500 435.974 463.750 435.987 C 490.288 435.994, 512.008 435.663, 512.018 435.250 C 512.066 433.307, 351.414 52, 350.547 52 C 349.213 52, 270.005 90.363, 270.002 91.010 C 270.001 91.291, 282.595 121.424, 297.989 157.974 L 325.978 224.428 313.254 254.678 C 306.255 271.316, 300.255 284.607, 299.919 284.214 C 299.584 283.822, 277.143 230.400, 250.050 165.500 C 222.957 100.600, 200.498 46.967, 200.141 46.315 C 199.696 45.500, 191.998 48.556, 175.497 56.100" stroke="none" fill="#040404" fill-rule="evenodd"/></svg>