<?xml version="1.0" standalone="no"?>
<!DOCTYPE svg PUBLIC "-//W3C//DTD SVG 20010904//EN"
 "http://www.w3.org/TR/2001/REC-SVG-20010904/DTD/svg10.dtd">
<svg version="1.0" xmlns="http://www.w3.org/2000/svg"
 width="1024.000000pt" height="1024.000000pt" viewBox="0 0 1024.000000 1024.000000"
 preserveAspectRatio="xMidYMid meet">

<g transform="translate(0.000000,1024.000000) scale(0.100000,-0.100000)"
fill="#000000" stroke="none">
<path d="M4890 6944 c-503 -44 -916 -157 -1325 -362 -332 -166 -612 -375 -911
-682 -115 -118 -277 -311 -372 -443 l-64 -87 58 -83 c161 -230 282 -373 481
-567 208 -204 365 -325 613 -472 723 -431 1665 -579 2523 -398 431 91 828 257
1177 491 175 118 320 238 485 404 163 162 268 286 419 492 l96 132 -88 118
c-259 346 -581 657 -902 873 -282 190 -600 340 -933 440 -161 49 -428 104
-602 125 -123 15 -556 28 -655 19z m520 -574 c187 -55 342 -152 483 -300 203
-214 297 -461 284 -745 -19 -417 -261 -753 -661 -919 -157 -65 -407 -85 -587
-46 -177 37 -324 108 -454 217 -223 187 -350 449 -362 746 -13 300 78 544 281
756 157 163 333 262 546 307 104 21 375 12 470 -16z m-1010 17 c0 -2 -25 -21
-55 -42 -31 -21 -91 -75 -134 -121 -165 -174 -268 -374 -323 -629 -20 -93 -16
-370 6 -475 64 -299 231 -572 449 -735 32 -25 55 -45 49 -45 -20 0 -271 84
-382 127 -245 96 -494 241 -710 413 -115 91 -321 295 -413 408 -69 84 -75 65
70 222 373 401 772 660 1283 831 142 47 160 52 160 46z m1645 -52 c339 -112
650 -281 942 -513 108 -85 384 -353 437 -424 l28 -38 -70 -82 c-98 -116 -331
-341 -432 -419 -301 -232 -628 -398 -994 -503 -48 -14 -91 -26 -94 -26 -4 0
18 16 48 36 76 51 236 215 292 299 148 224 212 435 212 700 0 120 -4 171 -23
255 -43 195 -123 366 -241 515 -62 77 -187 197 -237 228 -35 20 -44 34 -15 22
9 -4 76 -26 147 -50z"/>
<path d="M4995 6120 c-58 -12 -139 -46 -186 -77 l-40 -26 61 -19 c182 -56 238
-276 108 -423 -57 -64 -124 -95 -208 -95 -116 0 -189 50 -245 167 l-22 45 -21
-54 c-64 -157 -55 -399 22 -571 56 -126 178 -269 290 -336 272 -164 616 -140
852 60 113 96 190 209 240 354 26 72 28 93 28 220 1 159 -10 208 -76 340 -94
191 -251 329 -443 391 -64 21 -105 27 -200 30 -66 2 -138 -1 -160 -6z"/>
</g>
</svg>
