<svg xmlns="http://www.w3.org/2000/svg" width="512" height="512" viewBox="0 0 512 512" version="1.1"><path d="" stroke="none" fill="#080404" fill-rule="evenodd"/><path d="M 232 0.713 C 223.173 1.425, 202.344 5.090, 193 7.576 C 147.368 19.712, 109.794 40.760, 77.128 72.485 C 42.405 106.207, 19.090 146.679, 7.536 193.288 C 2.382 214.079, 0.926 225.093, 0.302 248 C -0.351 271.983, 0.796 286.306, 5.037 307.108 C 15.218 357.055, 38.888 401.020, 74.968 437 C 116.819 478.736, 168.614 503.726, 227.500 510.593 C 244.501 512.576, 278.948 512.040, 294.500 509.551 C 350.915 500.522, 399.922 475.371, 439.093 435.346 C 456.201 417.865, 467.870 402.410, 479.749 381.500 C 494.159 356.134, 505.743 321.799, 509.470 293.403 C 510.330 286.856, 511.475 279.581, 512.016 277.236 C 513.327 271.552, 513.312 232.969, 512 235 C 511.295 236.091, 511.026 235.274, 511.015 232 C 511.007 229.525, 510.115 222.075, 509.033 215.445 C 490.494 101.824, 399.549 14.860, 285.286 1.494 C 273.684 0.137, 244.443 -0.292, 232 0.713 M 240.512 19.614 C 216.098 25.516, 191.188 49.715, 172.883 85.312 C 167.564 95.656, 158.883 116.194, 159.544 116.870 C 160.245 117.586, 178.648 121.093, 191.500 122.960 C 205.857 125.046, 226.040 126.881, 238.752 127.256 L 247.005 127.500 247.002 72.750 C 247.001 42.638, 246.887 18.037, 246.750 18.083 C 246.613 18.129, 243.805 18.818, 240.512 19.614 M 265 72.606 L 265 127 274.250 126.997 C 284.953 126.994, 309.034 124.802, 323.500 122.515 C 338.821 120.093, 350.414 117.797, 351.301 117.009 C 352.337 116.089, 345.208 98.198, 338.947 86 C 319.935 48.966, 294.861 24.922, 269.250 19.167 L 265 18.213 265 72.606 M 183 28.927 C 155.901 37.798, 128.511 52.502, 106.691 69.894 C 95.613 78.724, 83.779 90.179, 84.742 91.142 C 87.686 94.086, 131.532 111.069, 139 112.158 C 141.143 112.470, 141.711 111.538, 145.557 101.390 C 154.996 76.487, 169.867 52.419, 187.966 32.750 C 191.382 29.038, 193.575 26.033, 192.839 26.072 C 192.102 26.112, 187.675 27.397, 183 28.927 M 323.535 33.144 C 331.505 41.538, 340.344 52.973, 347.387 64 C 353.252 73.183, 363.808 94.800, 367.479 105.146 L 370.192 112.792 377.284 110.785 C 390.332 107.092, 410.992 99.097, 422.281 93.371 L 428.062 90.438 419.841 82.969 C 399.613 64.591, 382.011 52.421, 360.500 41.940 C 347.573 35.642, 328.372 28.320, 320 26.497 L 316.500 25.735 323.535 33.144 M 65.500 112.281 C 46.455 137.812, 32.112 167.344, 24.838 196 C 21.598 208.767, 18.478 227.407, 17.600 239.250 L 17.026 247 68.013 247 L 119 247 119 239.700 C 119 213.984, 124.986 171.437, 132.862 141.182 C 134.911 133.306, 135.457 129.759, 134.654 129.521 C 114.724 123.607, 95.044 116.053, 80.351 108.679 L 71.500 104.237 65.500 112.281 M 429.500 109.228 C 416.954 115.561, 400.773 122.091, 387.635 126.125 C 382.061 127.836, 377.136 129.569, 376.692 129.976 C 376.247 130.383, 377.699 138.093, 379.918 147.108 C 386.351 173.246, 392 212.469, 392 231.001 C 392 234.697, 392.286 239.809, 392.636 242.360 L 393.272 247 443.765 247 L 494.258 247 493.571 237.750 C 491.219 206.104, 481.182 171.734, 466.192 144 C 458.918 130.542, 447.523 113.459, 440.071 104.840 C 439.757 104.477, 435 106.452, 429.500 109.228 M 149.710 148.224 C 142.810 175.961, 138.621 204.491, 137.354 232.371 L 136.689 247 191.845 247 L 247 247 247 196 L 247 145 237.750 144.997 C 227.227 144.993, 201.113 142.644, 187 140.433 C 177.445 138.936, 157.895 135.270, 154.881 134.410 C 153.549 134.030, 152.630 136.487, 149.710 148.224 M 349 136.114 C 327.349 140.658, 290.648 144.990, 273.750 144.997 L 265 145 265 196 L 265 247 319.930 247 L 374.861 247 374.381 235.750 C 373.204 208.137, 368.321 174.758, 361.569 148.175 C 359.707 140.847, 358.030 134.734, 357.842 134.590 C 357.654 134.447, 353.675 135.133, 349 136.114 M 0.423 255.500 C 0.424 267.050, 0.570 271.638, 0.747 265.696 C 0.924 259.753, 0.923 250.303, 0.745 244.696 C 0.567 239.088, 0.422 243.950, 0.423 255.500 M 17.559 272.250 C 20.759 312.732, 33.663 352.003, 54.444 384.500 C 58.195 390.365, 70.956 408, 71.450 408 C 71.587 408, 77.279 405.357, 84.099 402.127 C 97.820 395.630, 116.548 388.375, 127.875 385.170 C 131.931 384.022, 135.379 382.952, 135.538 382.792 C 135.696 382.631, 134.735 378.450, 133.402 373.500 C 125.383 343.715, 119 299.108, 119 272.855 L 119 265 67.993 265 L 16.986 265 17.559 272.250 M 137.355 280.250 C 138.566 307.991, 142.057 331.987, 149.139 361.250 C 151.788 372.192, 153.642 378, 154.487 378 C 155.198 378, 160.217 377.083, 165.640 375.963 C 180.976 372.795, 200.045 370.205, 217 368.987 C 225.525 368.375, 235.762 367.639, 239.750 367.352 L 247 366.829 247 315.915 L 247 265 191.845 265 L 136.689 265 137.355 280.250 M 265 315.864 L 265 366.728 269.640 367.364 C 272.191 367.714, 277.479 368.013, 281.390 368.030 C 294.937 368.086, 325.833 371.894, 346.864 376.099 C 352.564 377.239, 357.574 377.796, 357.996 377.336 C 359.010 376.231, 365.383 349.397, 367.932 335.500 C 370.641 320.728, 373.771 292.296, 374.345 277.250 L 374.811 265 319.906 265 L 265 265 265 315.864 M 392.620 272.250 C 392.318 276.238, 391.810 284.450, 391.493 290.500 C 390.297 313.271, 383.763 353.505, 378.012 373.497 C 376.906 377.345, 376 381.023, 376 381.669 C 376 382.316, 380.613 384.273, 386.250 386.019 C 400.035 390.287, 417.397 397.197, 429.232 403.125 C 434.584 405.806, 439.156 408, 439.391 408 C 439.625 408, 442.149 405.033, 444.999 401.407 C 472.096 366.926, 490.290 319.332, 493.606 274.250 L 494.287 265 443.729 265 L 393.171 265 392.620 272.250 M 232 385.661 C 221 386.243, 201.268 388.174, 191.500 389.624 C 182.310 390.988, 159.829 395.072, 159.254 395.482 C 158.639 395.922, 169.382 421.027, 173.517 428.814 C 191.419 462.527, 213.067 484.065, 236.922 491.896 C 248.191 495.596, 247 501.790, 247 439.500 L 247 385 242.250 385.185 C 239.637 385.287, 235.025 385.501, 232 385.661 M 265 439.433 C 265 483.932, 265.243 494, 266.318 494 C 269.103 494, 278.774 490.635, 284.999 487.501 C 304.789 477.534, 322.648 457.485, 337.799 428.226 C 343.448 417.316, 352 397.878, 352 395.949 C 352 395.165, 335.434 391.925, 319.500 389.592 C 308.395 387.966, 292.059 386.434, 275.750 385.489 L 265 384.866 265 439.433 M 138.500 400.486 C 137.950 400.667, 132.325 402.488, 126 404.532 C 112.849 408.784, 100.555 413.705, 90.640 418.688 L 83.779 422.136 86.140 424.667 C 90.223 429.044, 107.185 443.458, 115 449.193 C 133.775 462.968, 157.905 475.322, 180.881 482.920 C 187.665 485.164, 193.388 487, 193.598 487 C 193.808 487, 189.447 481.732, 183.906 475.292 C 178.365 468.853, 170.835 459.084, 167.173 453.583 C 159.015 441.328, 148.480 420.501, 144.494 408.750 C 141.714 400.554, 141.056 399.647, 138.500 400.486 M 369.692 400.750 C 369.458 401.163, 368.489 403.880, 367.540 406.789 C 359.837 430.388, 341.999 459.953, 323.437 479.888 C 319.433 484.187, 317.382 487.020, 318.529 486.666 C 319.613 486.331, 323.650 485.093, 327.500 483.916 C 353.144 476.072, 382.586 460.430, 404.309 443.109 C 412.894 436.263, 427 423.160, 427 422.031 C 427 420.290, 399.770 408.898, 382.659 403.480 C 370.791 399.722, 370.331 399.625, 369.692 400.750" stroke="none" fill="#040404" fill-rule="evenodd"/></svg>