<?xml version="1.0" standalone="no"?>
<!DOCTYPE svg PUBLIC "-//W3C//DTD SVG 20010904//EN"
 "http://www.w3.org/TR/2001/REC-SVG-20010904/DTD/svg10.dtd">
<svg version="1.0" xmlns="http://www.w3.org/2000/svg"
 width="3389.000000pt" height="1119.000000pt" viewBox="0 0 3389.000000 1119.000000"
 preserveAspectRatio="xMidYMid meet">

<g transform="translate(0.000000,1119.000000) scale(0.100000,-0.100000)"
fill="#000000" stroke="none">
<path d="M15339 11177 c-14 -7 -38 -22 -54 -35 -18 -15 -37 -21 -50 -18 -17 4
-28 -4 -54 -40 -24 -35 -35 -43 -45 -35 -10 8 -18 6 -31 -9 -20 -22 -51 -26
-58 -7 -3 8 -17 0 -41 -22 l-36 -35 -107 19 c-136 23 -449 32 -552 16 -142
-22 -257 -75 -287 -133 -9 -17 -25 -30 -42 -33 -125 -24 -193 -53 -260 -111
-95 -81 -126 -201 -82 -316 15 -42 27 -58 40 -58 13 0 20 8 22 27 4 31 43 63
78 63 406 -6 363 6 515 -139 68 -65 125 -109 173 -134 73 -39 84 -50 96 -99 5
-21 3 -28 -8 -28 -8 0 -17 -9 -21 -19 -13 -41 -86 -140 -163 -222 -68 -72 -95
-92 -166 -127 -86 -41 -112 -72 -62 -72 13 0 29 -7 36 -15 10 -12 8 -16 -15
-25 -14 -5 -29 -10 -32 -10 -14 0 -126 -87 -148 -116 -33 -43 -33 -56 1 -44
32 13 114 13 114 1 0 -5 -35 -34 -79 -65 -43 -30 -88 -70 -100 -89 -26 -42
-26 -47 -2 -47 10 0 29 -8 40 -18 l22 -17 -41 -55 c-52 -69 -80 -122 -80 -153
0 -16 14 -38 40 -61 l41 -37 -24 -39 c-13 -22 -27 -37 -32 -33 -4 5 -5 2 -1
-4 4 -8 -12 -32 -43 -63 -27 -27 -45 -52 -40 -56 10 -6 66 2 94 12 9 4 6 -12
-11 -53 -13 -32 -24 -79 -24 -104 0 -44 1 -46 25 -42 23 5 24 3 18 -31 -5 -32
-3 -36 17 -36 21 0 22 -3 17 -41 -9 -65 6 -85 37 -53 15 14 16 13 16 -6 0 -12
-5 -42 -11 -67 -10 -36 -9 -47 1 -53 10 -6 12 -29 7 -93 -4 -49 -3 -88 2 -91
5 -4 21 -2 34 3 l25 10 -19 -67 c-24 -84 -25 -109 -4 -92 9 7 18 10 22 7 15
-16 6 -185 -15 -264 -27 -99 -27 -103 -3 -103 16 0 20 -10 26 -57 3 -32 6 -95
5 -140 -1 -76 8 -101 25 -73 3 6 13 10 21 10 19 0 19 -115 0 -152 -14 -26 -14
-27 17 -30 28 -3 32 -6 31 -33 -1 -16 -5 -45 -9 -63 -6 -27 -5 -31 8 -26 22 8
41 -5 29 -19 -16 -20 -23 -83 -12 -111 6 -16 17 -26 30 -26 18 0 20 -6 20 -64
0 -73 -6 -96 -26 -96 -8 0 -14 -5 -14 -11 0 -7 12 -10 30 -7 56 8 34 -25 -48
-71 l-77 -44 -70 10 c-65 9 -76 8 -154 -19 -92 -30 -123 -53 -152 -110 -20
-38 -26 -113 -10 -122 5 -3 29 14 54 39 30 31 53 45 71 45 14 0 26 -4 26 -9 0
-11 85 -41 117 -41 14 0 32 4 41 9 9 5 51 12 92 16 l75 7 -29 -31 c-17 -18
-40 -31 -53 -31 -47 0 -79 -27 -115 -98 -56 -108 -74 -232 -33 -232 8 0 24 18
35 39 24 49 26 50 101 62 34 5 76 17 93 26 17 8 90 75 161 149 81 83 140 136
157 140 21 4 44 -3 93 -31 74 -41 102 -74 87 -102 -5 -10 -14 -41 -20 -68 -6
-28 -14 -58 -17 -68 -14 -35 32 -17 77 31 63 67 70 96 59 224 -8 97 -26 158
-51 173 -6 4 -5 13 3 26 10 17 9 22 -11 38 -23 17 -23 17 -6 62 26 68 39 78
67 51 19 -18 47 -30 47 -19 0 1 -7 27 -15 57 -8 30 -15 66 -14 80 0 24 1 23
36 -15 l35 -40 -7 90 c-4 50 -13 118 -20 153 l-13 62 29 0 c27 0 29 3 29 39 0
21 -5 53 -11 71 -9 25 -9 34 1 40 11 7 11 21 0 78 -7 38 -10 81 -6 95 3 13 1
38 -5 55 -6 16 -9 49 -7 72 l3 41 45 -38 c41 -36 48 -38 120 -41 276 -11 292
-13 284 -30 -38 -89 -46 -130 -42 -222 8 -163 90 -341 214 -467 52 -53 83 -73
215 -138 l154 -75 -95 5 c-52 3 -205 7 -340 8 -237 2 -246 1 -287 -20 -23 -13
-54 -40 -70 -60 -15 -21 -37 -47 -49 -58 -27 -25 -44 -75 -44 -131 0 -47 8
-52 44 -29 31 20 56 10 56 -24 0 -14 3 -36 6 -48 8 -29 44 -31 44 -3 0 11 4
20 8 20 14 0 52 -45 52 -63 0 -21 19 -32 32 -19 6 6 45 8 102 5 62 -4 128 0
206 13 87 13 186 18 405 20 285 2 292 2 390 30 85 24 113 28 185 24 254 -14
512 3 685 47 158 39 410 230 524 396 38 55 118 261 152 392 21 77 24 113 24
250 l-1 160 -53 160 c-109 329 -119 488 -39 599 43 59 63 71 90 52 12 -9 31
-16 41 -16 25 0 76 -27 116 -63 60 -52 127 -77 207 -77 51 0 75 4 84 15 11 13
15 13 41 0 43 -23 62 -20 57 9 -5 24 -4 25 23 10 42 -21 86 -18 92 6 4 15 14
20 41 20 20 0 36 4 36 10 0 5 18 14 40 20 21 6 42 14 45 19 5 9 -59 71 -75 71
-5 0 -21 5 -36 10 l-27 11 26 27 c32 33 34 42 8 42 -37 0 -131 64 -131 89 0
34 -65 89 -140 122 -66 28 -89 33 -190 37 l-115 5 -80 -42 c-251 -129 -329
-211 -381 -401 -15 -51 -18 -103 -19 -245 0 -158 3 -195 27 -305 15 -69 32
-162 38 -208 25 -185 -36 -376 -174 -543 -41 -50 -165 -159 -180 -159 -3 0 7
26 23 58 95 189 140 543 91 730 -22 88 -50 163 -85 233 l-25 49 25 6 c26 6 26
7 -25 60 -27 29 -77 94 -110 145 -53 82 -58 95 -45 109 13 14 4 25 -87 105
-93 83 -99 90 -75 93 15 2 27 6 27 10 0 4 -35 28 -77 54 -129 77 -184 134
-164 167 6 8 20 6 52 -8 70 -32 209 -26 209 10 0 5 -19 30 -41 54 -45 49 -43
51 41 33 61 -12 133 -4 128 15 -2 7 -34 32 -71 56 -37 24 -66 46 -64 48 3 2
30 -3 63 -12 68 -18 114 -19 114 -4 0 6 -5 19 -10 30 -6 10 -9 19 -8 19 2 0
25 -7 52 -15 57 -17 142 -20 151 -4 4 5 -31 49 -77 97 -73 76 -157 178 -183
221 -5 8 23 -10 61 -41 133 -107 248 -164 279 -138 22 18 18 73 -6 104 l-21
26 24 -9 c13 -5 43 -21 68 -35 25 -14 48 -26 53 -26 12 0 8 32 -13 90 -10 30
-17 56 -16 57 1 2 35 -4 76 -13 40 -8 92 -14 114 -12 36 3 41 6 44 30 2 15 -4
41 -13 59 -16 31 -16 32 1 24 69 -27 137 -46 161 -43 27 3 28 5 28 63 0 53 -5
69 -44 135 -97 165 -140 244 -135 249 2 3 60 -49 127 -116 129 -128 198 -183
229 -183 23 0 23 17 -1 80 -11 27 -18 50 -16 50 1 0 31 -13 66 -29 83 -37 112
-42 117 -17 11 52 -90 200 -182 268 -31 23 -35 29 -16 23 20 -6 196 -76 258
-102 22 -9 13 21 -24 75 -20 30 -34 55 -32 56 2 2 44 8 93 15 50 6 122 19 160
28 58 15 71 22 73 40 2 15 -7 28 -34 46 l-36 25 90 0 c94 -1 152 14 152 39 0
8 -50 37 -122 71 -68 31 -170 80 -228 109 l-105 53 50 -5 c28 -4 149 -22 270
-41 183 -30 239 -35 335 -32 94 3 123 8 157 26 23 12 45 27 49 33 14 23 -44
61 -142 94 l-98 33 90 7 c217 16 445 114 432 184 -3 16 -31 34 -83 52 -29 11
-28 11 42 29 78 20 128 43 140 63 4 8 22 22 38 32 102 63 176 139 160 165 -10
15 -62 12 -155 -11 -210 -51 -409 -72 -465 -50 -16 7 -9 10 30 15 343 47 562
132 619 239 15 26 29 36 64 46 26 7 59 26 78 45 28 28 34 42 34 75 0 62 -19
61 -102 -2 -138 -104 -275 -161 -578 -238 -275 -71 -452 -100 -645 -106 -143
-4 -218 1 -710 51 -688 69 -849 80 -1050 73 -171 -6 -262 -21 -370 -62 -196
-73 -376 -268 -508 -547 -50 -106 -95 -182 -145 -246 l-19 -24 -21 59 c-12 33
-44 96 -71 141 -32 53 -45 84 -38 91 6 6 2 19 -13 38 -19 24 -20 28 -6 31 26
6 18 29 -30 88 -47 58 -51 74 -15 54 27 -14 26 -5 -4 48 l-24 42 25 -6 c31 -8
30 2 -6 59 -16 26 -30 57 -30 68 0 10 -16 68 -35 128 -19 59 -35 121 -35 137
-1 37 -32 105 -71 155 -33 42 -60 48 -110 26z"/>
<path d="M33310 3500 c-330 -59 -513 -432 -364 -738 60 -123 170 -212 295
-241 24 -6 85 -11 134 -11 160 0 269 42 371 144 96 97 144 213 144 356 0 239
-183 452 -420 490 -73 11 -95 11 -160 0z m195 -84 c174 -46 296 -181 326 -360
40 -235 -131 -467 -375 -509 -184 -31 -376 73 -464 252 -36 74 -37 79 -37 187
0 107 1 112 37 185 60 120 179 221 294 248 59 14 163 12 219 -3z"/>
<path d="M33170 3011 l0 -261 60 0 60 0 0 85 0 85 48 0 48 0 63 -85 63 -85 69
0 c38 0 69 2 69 5 0 3 -27 46 -59 94 l-60 88 41 19 c56 25 78 64 78 139 0 72
-21 111 -76 146 -37 23 -49 24 -221 27 l-183 4 0 -261z m338 142 c36 -31 38
-66 4 -104 -28 -31 -33 -33 -115 -37 l-87 -5 0 82 0 81 89 0 c70 0 93 -4 109
-17z"/>
<path d="M25070 3305 c-8 -2 -49 -9 -90 -15 -236 -38 -478 -167 -644 -341
-220 -230 -355 -531 -412 -924 -22 -146 -25 -521 -6 -665 73 -551 297 -942
662 -1155 352 -205 884 -219 1255 -32 399 200 653 622 720 1195 17 147 20 435
5 583 -65 642 -371 1108 -841 1280 -154 56 -236 70 -444 74 -104 2 -197 2
-205 0z m361 -170 c609 -106 982 -704 956 -1530 -12 -381 -99 -680 -269 -933
-213 -316 -569 -492 -945 -468 -432 28 -768 288 -947 733 -160 401 -185 894
-67 1323 134 482 449 798 874 875 98 18 297 18 398 0z"/>
<path d="M6481 3264 c0 -5 46 -45 102 -89 113 -90 160 -148 208 -263 29 -71
32 -88 37 -217 3 -106 0 -162 -13 -229 -16 -89 -260 -856 -348 -1096 -26 -69
-82 -235 -125 -369 l-79 -245 -38 115 c-21 62 -94 269 -162 459 -111 308 -340
951 -459 1290 -37 106 -44 137 -44 202 0 137 50 225 197 345 45 37 83 71 83
76 0 4 -293 7 -650 7 l-651 0 11 -20 c6 -12 43 -56 82 -98 85 -94 219 -290
266 -392 54 -117 162 -383 162 -400 0 -9 -119 -335 -265 -726 -326 -870 -327
-874 -331 -874 -2 0 -40 114 -85 252 -44 139 -118 368 -164 508 -168 514 -265
839 -345 1160 -67 270 -53 319 144 485 l120 100 -629 3 c-345 1 -630 0 -633
-3 -2 -2 27 -48 65 -102 127 -179 170 -247 208 -333 79 -180 249 -622 346
-902 170 -493 599 -1785 599 -1805 0 -17 11 -22 83 -31 103 -15 212 -15 291
-1 l61 10 212 582 c117 320 272 747 345 949 73 201 136 365 139 362 3 -2 158
-422 344 -934 l338 -930 41 -12 c58 -16 310 -16 366 1 l45 13 104 312 c112
336 361 1043 492 1394 101 272 339 863 381 945 70 141 164 264 269 354 51 43
109 110 109 126 0 2 -152 7 -337 11 -186 3 -463 9 -615 12 -160 4 -278 3 -277
-2z"/>
<path d="M8990 1675 l0 -1595 91 0 90 0 -3 1392 -3 1393 66 -175 c36 -96 112
-285 168 -420 56 -135 280 -681 499 -1215 l397 -970 91 -3 90 -3 328 838 c181
461 389 991 464 1178 74 187 171 446 216 576 l81 236 -3 -1413 -4 -1414 91 0
91 0 0 1595 0 1596 -122 -3 -122 -3 -468 -1210 c-256 -665 -504 -1312 -550
-1437 -46 -125 -85 -228 -88 -228 -3 0 -15 33 -27 73 -13 39 -276 686 -586
1437 l-564 1365 -111 3 -112 3 0 -1596z"/>
<path d="M16070 1676 l0 -1596 90 0 90 0 0 730 0 730 458 0 457 0 505 -730
505 -730 122 0 c68 0 123 3 122 8 0 4 -231 338 -512 742 l-513 735 109 12
c371 42 624 188 743 428 66 133 87 248 81 435 -6 165 -21 236 -77 355 -102
219 -287 365 -530 419 -215 47 -242 49 -962 53 l-688 4 0 -1595z m1390 1371
c445 -74 692 -340 666 -714 -24 -349 -231 -539 -661 -609 -81 -13 -207 -17
-657 -21 l-558 -5 0 687 0 687 558 -5 c445 -3 576 -7 652 -20z"/>
<path d="M19370 1676 l0 -1596 95 0 95 0 0 720 0 720 456 -2 457 -3 512 -715
513 -715 121 -3 c79 -2 121 1 121 8 0 5 -234 340 -520 743 l-521 732 73 7
c219 22 406 81 539 170 196 131 291 295 320 554 30 263 -44 517 -198 683 -148
161 -275 220 -578 268 -83 13 -221 17 -792 20 l-693 4 0 -1595z m1277 1384
c292 -22 489 -97 633 -240 118 -118 171 -256 171 -444 -1 -304 -146 -500 -443
-602 -177 -60 -358 -74 -970 -74 l-458 0 0 685 0 685 468 0 c257 0 527 -5 599
-10z"/>
<path d="M22720 1675 l0 -1595 90 0 90 0 0 1595 0 1595 -90 0 -90 0 0 -1595z"/>
<path d="M27010 3180 l0 -90 550 0 550 0 0 -1505 0 -1505 100 0 100 0 0 1505
0 1505 550 0 550 0 0 90 0 90 -1200 0 -1200 0 0 -90z"/>
<path d="M30020 3180 l0 -90 545 0 545 0 0 -1505 0 -1505 105 0 105 0 0 1505
0 1505 545 0 545 0 0 90 0 90 -1195 0 -1195 0 0 -90z"/>
<path d="M1114 3241 c3 -5 60 -39 127 -77 179 -101 258 -195 289 -349 7 -33
24 -94 38 -135 16 -49 26 -105 28 -160 8 -159 29 -1344 27 -1505 -2 -244 -38
-417 -115 -554 -187 -330 -689 -312 -863 30 -54 104 -76 301 -46 408 7 23 10
46 6 49 -3 3 -139 -32 -303 -79 l-297 -84 -3 -44 c-4 -54 29 -165 75 -252 76
-147 219 -278 396 -364 194 -93 397 -131 662 -122 98 4 202 13 245 22 462 101
740 359 836 776 15 65 18 176 24 889 11 1058 17 1145 87 1284 31 62 113 149
161 172 41 19 131 85 131 97 1 4 -339 7 -755 7 -435 0 -753 -4 -750 -9z"/>
<path d="M13770 3246 c0 -2 -265 -714 -590 -1581 -324 -867 -590 -1578 -590
-1581 0 -2 46 -4 103 -4 l102 0 181 493 181 492 749 0 749 0 181 -490 181
-490 91 -3 c51 -1 92 0 92 3 0 3 -271 717 -602 1586 l-601 1579 -114 0 c-62 0
-113 -2 -113 -4z m210 -386 c37 -113 183 -514 324 -891 141 -378 256 -690 256
-693 0 -3 -304 -6 -676 -6 -639 0 -676 1 -671 18 2 9 118 312 257 672 138 360
293 765 343 899 51 134 94 235 96 225 2 -10 34 -111 71 -224z"/>
</g>
</svg>
