<?xml version="1.0" encoding="UTF-8"?>
<svg version="1.1" xmlns="http://www.w3.org/2000/svg" width="626" height="626">
<path d="M0 0 C0.75356502 -0.00175304 1.50713003 -0.00350607 2.28353035 -0.00531223 C4.81094748 -0.00996755 7.33830696 -0.00750793 9.86572647 -0.00507832 C11.69518971 -0.00694652 13.52465256 -0.00924727 15.35411477 -0.01194364 C20.38355586 -0.01806685 25.41298033 -0.01792743 30.4424243 -0.01674926 C35.86587627 -0.01654539 41.28932289 -0.02206277 46.71277237 -0.02680683 C57.33932763 -0.03511688 67.96587734 -0.03786184 78.59243557 -0.03841921 C87.22969881 -0.03889422 95.86696021 -0.0409482 104.50422287 -0.04411983 C128.98798089 -0.0529275 153.47173452 -0.05753905 177.95549414 -0.05678936 C178.61535333 -0.05676942 179.27521253 -0.05674947 179.95506747 -0.05672892 C181.28946386 -0.05668848 182.62386026 -0.05664669 183.95825665 -0.05660353 C204.71666587 -0.05599085 225.47505875 -0.063496 246.23346329 -0.07717609 C269.55832352 -0.0925271 292.88317296 -0.10112938 316.20803857 -0.10021287 C328.55691155 -0.09988077 340.9057661 -0.1026338 353.25463486 -0.11339092 C363.76876019 -0.12249103 374.28285875 -0.12467521 384.79698631 -0.1178815 C390.16119144 -0.11461379 395.52534518 -0.11456871 400.88954544 -0.12323475 C405.80211683 -0.13108952 410.714596 -0.12967873 415.62716511 -0.12095062 C417.40238788 -0.11941338 419.1776175 -0.12124022 420.95283219 -0.12681069 C432.82326223 -0.16158589 443.43423347 0.78781203 454.6680336 4.81613445 C455.39587051 5.07668621 456.12370743 5.33723797 456.87360001 5.60568523 C484.7484064 15.91136097 506.99873254 37.84932016 519.7852211 64.43332195 C524.65421206 75.46771006 527.52014857 86.79803466 527.48416805 98.89614868 C527.48592109 99.65086754 527.48767413 100.4055864 527.48948029 101.18317553 C527.49412687 103.70849615 527.49167825 106.23375886 527.48924637 108.75908184 C527.49111501 110.58940814 527.49341593 112.41973404 527.49611169 114.25005931 C527.50222943 119.27724105 527.50209613 124.30440616 527.50091732 129.33159077 C527.5007133 134.7543435 527.5062321 140.17709088 527.51097488 145.59984112 C527.51928175 156.22291716 527.52202974 166.84598764 527.52258726 177.46906666 C527.52306238 186.10344556 527.52511695 194.73782264 527.52828789 203.37220097 C527.5370944 227.85005084 527.54170724 252.32789632 527.54095741 276.80574778 C527.54089748 278.78520925 527.54089748 278.78520925 527.54083633 280.80465984 C527.54081497 281.4650822 527.5407936 282.12550457 527.54077158 282.80593973 C527.54015884 303.55779875 527.54766566 324.30964143 527.56134415 345.06149578 C527.57669508 368.38160225 527.58529745 391.70169791 527.58438092 415.02180976 C527.58404883 427.36731438 527.58680129 439.71280057 527.59755898 452.05830097 C527.60665891 462.56874229 527.60884337 473.07915682 527.60204955 483.58960036 C527.59878186 488.95178718 527.59873671 494.3139226 527.6074028 499.67610455 C527.61525757 504.58678562 527.61384679 509.49737444 527.60511867 514.40805324 C527.60358144 516.18257318 527.60540824 517.95709997 527.61097874 519.73161183 C527.66082497 536.73963322 527.66082497 536.73963322 525.3555336 545.12863445 C525.02295547 546.35968914 524.69037735 547.59074383 524.3477211 548.8591032 C521.31710051 558.2370725 517.24055798 566.58226973 512.3555336 575.12863445 C512.00160538 575.7635783 511.64767715 576.39852215 511.28302383 577.05270672 C509.26947359 580.64631205 507.34712315 583.30799288 504.3555336 586.12863445 C503.24462693 587.41450893 502.14122618 588.70688473 501.0430336 590.00363445 C498.25251315 593.22530827 495.33824405 596.02333242 492.03131485 598.70675945 C490.26142021 600.16541651 490.26142021 600.16541651 488.4180336 602.09738445 C471.63824497 618.62293386 447.03842433 626.31423193 424.08624649 626.24215984 C422.84637954 626.24228038 421.60651258 626.24240091 420.32907391 626.2425251 C416.99168525 626.24190404 413.65435959 626.2369768 410.31698227 626.22991467 C407.17907692 626.2241968 404.04117303 626.2239503 400.90326309 626.22323895 C391.74151517 626.21800293 382.57977392 626.20404169 373.4180336 626.19113445 C342.6970961 626.16019695 342.6970961 626.16019695 311.3555336 626.12863445 C311.3555336 547.91863445 311.3555336 469.70863445 311.3555336 389.12863445 C345.6755336 389.12863445 379.9955336 389.12863445 415.3555336 389.12863445 C415.3555336 355.13863445 415.3555336 321.14863445 415.3555336 286.12863445 C381.50310871 286.16825254 381.50310871 286.16825254 347.65069962 286.21872234 C341.11713028 286.22323895 341.11713028 286.22323895 338.06267166 286.22407818 C335.9202135 286.2256181 333.77775622 286.22914401 331.6353035 286.23421001 C328.39823262 286.24148453 325.16121489 286.24254197 321.92413712 286.24215984 C320.48212228 286.24755701 320.48212228 286.24755701 319.01097584 286.2530632 C317.71164568 286.25099696 317.71164568 286.25099696 316.38606644 286.24888897 C315.248113 286.25027166 315.248113 286.25027166 314.0871706 286.25168228 C312.3555336 286.12863445 312.3555336 286.12863445 311.3555336 285.12863445 C311.246998 283.71396887 311.2065168 282.29398775 311.19440079 280.87521648 C311.18479324 279.96982128 311.1751857 279.06442608 311.16528702 278.13159466 C311.1589122 276.64899654 311.1589122 276.64899654 311.1524086 275.13644695 C311.14670853 274.1207362 311.14100845 273.10502544 311.13513565 272.05853558 C311.1256624 269.89799325 311.1191425 267.73743632 311.11529922 265.57687664 C311.1056763 262.30219603 311.07470984 259.02816533 311.0430336 255.75363445 C311.03649537 253.65207567 311.03124813 251.5505124 311.0274086 249.44894695 C311.0150618 248.48079052 311.002715 247.51263409 310.98999405 246.51513958 C311.01752198 237.92116085 311.97047124 228.58290058 318.1680336 222.12863445 C318.81385391 221.42738445 319.45967422 220.72613445 320.12506485 220.00363445 C325.55840783 215.43620078 330.20707945 214.69533336 337.02301407 214.78805828 C338.31763911 214.78751587 338.31763911 214.78751587 339.6384182 214.78696251 C342.41675972 214.78919174 345.19448837 214.81199147 347.9727211 214.8356657 C349.69415369 214.84007963 351.41559031 214.84313827 353.13702774 214.84482098 C359.50159132 214.86051396 365.86606856 214.90239781 372.2305336 214.94113445 C386.4617836 215.00300945 400.6930336 215.06488445 415.3555336 215.12863445 C415.3555336 181.13863445 415.3555336 147.14863445 415.3555336 112.12863445 C400.2580336 112.21113445 385.1605336 112.29363445 369.6055336 112.37863445 C362.51746231 112.40232098 362.51746231 112.40232098 355.28619766 112.42648602 C350.96217065 112.45980178 350.96217065 112.45980178 346.63818741 112.49820232 C344.74744021 112.51259094 342.85662598 112.51957915 340.96582413 112.52017498 C312.98069421 112.5440357 290.07384112 118.41044886 267.5352211 135.6247282 C265.3555336 137.12863445 265.3555336 137.12863445 263.3555336 137.12863445 C263.0255336 138.11863445 262.6955336 139.10863445 262.3555336 140.12863445 C260.8242836 141.6012907 260.8242836 141.6012907 258.8555336 143.19113445 C232.88105654 165.30893603 218.51423825 200.7440409 215.8086586 234.19894695 C215.13293153 244.45466272 214.99713473 254.72990849 214.7930336 265.00363445 C214.6486586 271.97488445 214.5042836 278.94613445 214.3555336 286.12863445 C189.2755336 286.12863445 164.1955336 286.12863445 138.3555336 286.12863445 C138.3555336 320.11863445 138.3555336 354.10863445 138.3555336 389.12863445 C163.4355336 389.12863445 188.5155336 389.12863445 214.3555336 389.12863445 C214.3555336 467.33863445 214.3555336 545.54863445 214.3555336 626.12863445 C159.7199086 626.19050945 159.7199086 626.19050945 103.9805336 626.25363445 C92.4816127 626.27184246 80.9826918 626.29005047 69.13531876 626.30881023 C55.0886879 626.31784344 55.0886879 626.31784344 48.51187515 626.3195219 C43.92062826 626.32138443 39.32942766 626.32887644 34.73819351 626.33978558 C28.87753922 626.35352601 23.01695204 626.35761259 17.15628314 626.35477901 C15.00808103 626.35537134 12.85987652 626.35932398 10.71168828 626.36706471 C7.80306054 626.37705675 4.89469134 626.37459824 1.98605728 626.36914349 C1.15163794 626.37496881 0.31721859 626.38079414 -0.54248619 626.386796 C-9.44459156 626.34212383 -17.73761791 624.38291449 -26.0819664 621.37863445 C-26.81350937 621.11695477 -27.54505234 620.85527508 -28.29876328 620.5856657 C-37.90022118 617.04962218 -46.24251618 611.89983705 -54.6444664 606.12863445 C-55.7169664 605.44800945 -56.7894664 604.76738445 -57.8944664 604.06613445 C-62.99051792 600.47573452 -66.86529524 595.79718281 -70.89837265 591.0934782 C-72.6293944 589.09604301 -72.6293944 589.09604301 -74.5897789 587.24582195 C-89.19924939 572.19195693 -98.83479582 548.10548143 -98.77310085 527.36112022 C-98.77485389 526.60640136 -98.77660693 525.8516825 -98.77841309 525.07409337 C-98.78305967 522.54877275 -98.78061105 520.02351005 -98.77817917 517.49818707 C-98.78004781 515.66786077 -98.78234873 513.83753487 -98.78504449 512.0072096 C-98.79116223 506.98002786 -98.79102893 501.95286275 -98.78985012 496.92567813 C-98.7896461 491.50292541 -98.7951649 486.08017803 -98.79990768 480.65742779 C-98.80821455 470.03435175 -98.81096254 459.41128126 -98.81152006 448.78820225 C-98.81199519 440.15382334 -98.81404975 431.51944627 -98.81722069 422.88506794 C-98.8260272 398.40721807 -98.83064004 373.92937259 -98.82989021 349.45152112 C-98.82985026 348.13188014 -98.8298103 346.81223916 -98.82976913 345.45260906 C-98.82974777 344.7921867 -98.8297264 344.13176434 -98.82970438 343.45132918 C-98.82909164 322.69947016 -98.83659846 301.94762747 -98.85027695 281.19577312 C-98.86562788 257.87566666 -98.87423026 234.55557099 -98.87331372 211.23545915 C-98.87298163 198.88995453 -98.87573409 186.54446833 -98.88649178 174.19896793 C-98.89559171 163.68852662 -98.89777617 153.17811209 -98.89098235 142.66766854 C-98.88771466 137.30548172 -98.88766951 131.94334631 -98.8963356 126.58116436 C-98.90419037 121.67048328 -98.90277959 116.75989446 -98.89405147 111.84921566 C-98.89251424 110.07469573 -98.89434104 108.30016894 -98.89991155 106.52565708 C-98.94975777 89.51763568 -98.94975777 89.51763568 -96.6444664 81.12863445 C-96.31188828 79.89757977 -95.97931015 78.66652508 -95.6366539 77.3981657 C-89.52879647 58.49797751 -79.02005142 41.93354408 -64.6444664 28.12863445 C-63.9844664 28.12863445 -63.3244664 28.12863445 -62.6444664 28.12863445 C-62.6444664 27.46863445 -62.6444664 26.80863445 -62.6444664 26.12863445 C-45.57275801 11.46221831 -22.85969296 -0.06772864 0 0 Z " fill="#010101" transform="translate(98.64446640014648,-0.12863445281982422)"/>
<path d="M0 0 C1.4606285 2.64738916 2 3.89448334 2 7 C1.4225 7.0825 0.845 7.165 0.25 7.25 C-2.6701433 8.2233811 -4.01787793 9.67613275 -6 12 C-6.33 12.99 -6.66 13.98 -7 15 C-7.66 15 -8.32 15 -9 15 C-7.58399311 8.86397012 -3.9336625 4.73301638 0 0 Z " fill="#424242" transform="translate(21,43)"/>
<path d="M0 0 C4.23177273 1.5113474 5.7754303 4.21823151 8 8 C8.71573527 9.64619113 9.4025696 11.30728055 10 13 C8.68 12.34 7.36 11.68 6 11 C6 10.01 6 9.02 6 8 C5.01 8.33 4.02 8.66 3 9 C2.67 6.69 2.34 4.38 2 2 C1.34 2 0.68 2 0 2 C0 1.34 0 0.68 0 0 Z " fill="#4C4C4C" transform="translate(599,37)"/>
<path d="M0 0 C5.78591511 -0.10477512 11.29309366 0.00749455 17 1 C17 1.33 17 1.66 17 2 C14.73122896 2.24875561 12.45980265 2.47339246 10.1875 2.6875 C8.92292969 2.81511719 7.65835938 2.94273438 6.35546875 3.07421875 C3 3 3 3 1.05078125 1.51953125 C0.70402344 1.01808594 0.35726562 0.51664062 0 0 Z " fill="#565656" transform="translate(525,0)"/>
<path d="M0 0 C0.66 0.33 1.32 0.66 2 1 C-0.31 3.64 -2.62 6.28 -5 9 C-5.99 8.67 -6.98 8.34 -8 8 C-7.0479279 6.99403703 -6.08812654 5.99538437 -5.125 5 C-4.59132813 4.443125 -4.05765625 3.88625 -3.5078125 3.3125 C-2 2 -2 2 0 2 C0 1.34 0 0.68 0 0 Z " fill="#545454" transform="translate(36,26)"/>
<path d="M0 0 C0.66 0 1.32 0 2 0 C2 0.99 2 1.98 2 3 C2.66 3 3.32 3 4 3 C4 4.98 4 6.96 4 9 C1.49701566 6.06171403 0.53069061 3.82097239 0 0 Z " fill="#5C5C5C" transform="translate(6,555)"/>
</svg>
