<?xml version="1.0" encoding="UTF-8"?>
<svg version="1.1" xmlns="http://www.w3.org/2000/svg" width="512" height="512">
<path d="M0 0 C2.35426408 -0.00463921 4.70852742 -0.00966531 7.06278992 -0.01504517 C13.41003084 -0.02805993 19.75726125 -0.03459187 26.10451341 -0.03905582 C30.08127559 -0.04200266 34.05803499 -0.04611024 38.03479576 -0.05056 C49.08694333 -0.06273007 60.13908905 -0.07303682 71.19124317 -0.07643509 C71.8952768 -0.07665466 72.59931042 -0.07687422 73.3246784 -0.07710044 C74.03018893 -0.07731872 74.73569945 -0.077537 75.46258909 -0.07776189 C76.89172606 -0.07820532 78.32086303 -0.07865189 79.75 -0.07910156 C80.45886904 -0.07932299 81.16773808 -0.07954442 81.898088 -0.07977256 C93.38100929 -0.08371971 104.8638671 -0.10118139 116.34676389 -0.12446108 C128.1899311 -0.14827398 140.03306657 -0.16064127 151.87625808 -0.16180301 C158.50427091 -0.1627137 165.13221047 -0.16864025 171.76020241 -0.18662262 C177.99761298 -0.20321982 184.23486702 -0.20520279 190.47229195 -0.19648361 C192.74567843 -0.1957196 195.01907376 -0.1999707 197.29243851 -0.20994186 C235.22565264 -0.36640998 271.19487416 8.52048545 300.17260742 34.16113281 C301.1600293 35.01578125 302.14745117 35.87042969 303.16479492 36.75097656 C322.92558185 54.11012596 335.92833582 76.28900449 343.42260742 101.34863281 C343.77415894 102.49392456 343.77415894 102.49392456 344.1328125 103.66235352 C349.14379282 121.46059326 349.61336895 139.73230605 349.56079102 158.08520508 C349.56486737 160.50902542 349.57021515 162.9328439 349.57672119 165.35665894 C349.58887369 171.20194104 349.5872438 177.0470925 349.57848327 182.89237828 C349.57165233 187.65096317 349.57081307 192.40951576 349.57405472 197.16810417 C349.57451442 197.85054937 349.57497412 198.53299458 349.57544775 199.23611994 C349.57640711 200.6233461 349.57737976 202.01057226 349.57836552 203.39779841 C349.58687863 216.34378271 349.5771495 229.28970282 349.56096442 242.23567658 C349.54756193 253.29769341 349.54989672 264.35961573 349.5637207 275.42163086 C349.57984392 288.32918104 349.5860582 301.23667527 349.57688391 314.14423412 C349.57592846 315.52548181 349.57498534 316.90672951 349.57405472 318.28797722 C349.57359189 318.96723169 349.57312906 319.64648616 349.57265221 320.3463241 C349.57008267 325.08910242 349.57438877 329.83184466 349.58149338 334.57461739 C349.5902311 340.97953696 349.58401813 347.38428002 349.56681061 353.78918076 C349.562882 356.12384055 349.5639166 358.45851549 349.5705986 360.79316902 C349.615735 378.18162982 348.85323947 395.59612227 343.48510742 412.28613281 C343.23019531 413.10049805 342.9752832 413.91486328 342.71264648 414.75390625 C336.05056548 435.32915045 325.74105548 453.21138005 311.17260742 469.16113281 C310.45717773 469.9590625 309.74174805 470.75699219 309.00463867 471.57910156 C285.00320591 497.0215209 247.11585202 511.15214528 212.51805305 512.43787766 C206.14009467 512.58451307 199.76300928 512.56745519 193.38378906 512.54931641 C190.95041164 512.55339125 188.51703607 512.55873821 186.08366394 512.56524658 C180.20736022 512.57741518 174.3311863 512.57576014 168.45487887 512.56700866 C163.67097922 512.56018415 158.88711169 512.55933576 154.10320854 512.56258011 C153.417717 512.56303981 152.73222545 512.56349951 152.02596144 512.56397314 C150.6326152 512.56493249 149.23926898 512.56590513 147.84592276 512.56689091 C134.83365933 512.57540995 121.82145968 512.56566611 108.80920672 512.54948981 C97.68917882 512.53609283 86.56924495 512.5384164 75.44921875 512.55224609 C62.47942339 512.56836916 49.50968372 512.57458316 36.53987974 512.5654093 C35.15186052 512.56445384 33.7638413 512.56351072 32.37582207 512.56258011 C31.69321351 512.56211728 31.01060495 512.56165446 30.30731129 512.5611776 C25.54001015 512.55860757 20.77274487 512.5629154 16.0054493 512.57001877 C9.56608399 512.57875648 3.12689425 512.57254352 -3.31245232 512.555336 C-5.66001089 512.55140705 -8.00758452 512.55244259 -10.35513687 512.55912399 C-27.78009817 512.60410227 -45.22658639 511.85260693 -61.95239258 506.47363281 C-62.76530762 506.2194458 -63.57822266 505.96525879 -64.41577148 505.70336914 C-82.90920265 499.71977883 -99.0495718 490.81387853 -113.82739258 478.16113281 C-114.65883789 477.45214844 -115.4902832 476.74316406 -116.34692383 476.01269531 C-134.57261527 460.05471663 -147.24273601 440.39833761 -155.13989258 417.59863281 C-155.60987671 416.28318481 -155.60987671 416.28318481 -156.08935547 414.94116211 C-162.39139638 395.74207782 -163.41949534 375.7645072 -163.32910156 355.72875977 C-163.33289697 353.28641449 -163.33840696 350.84407139 -163.34547424 348.4017334 C-163.35785982 342.52239563 -163.3519825 336.6432981 -163.33679866 330.76397125 C-163.31972785 323.88588374 -163.32317483 317.00784746 -163.32689274 310.12974527 C-163.3327391 297.84158032 -163.31872583 285.5535186 -163.29394531 273.26538086 C-163.27001837 261.39880509 -163.26295138 249.53236706 -163.2734375 237.66577148 C-163.28489839 224.67321796 -163.28671455 211.68072774 -163.2723394 198.6881749 C-163.27081391 197.29768797 -163.26929355 195.90720104 -163.2677784 194.5167141 C-163.26664168 193.49107857 -163.26664168 193.49107857 -163.26548199 192.44472313 C-163.26078016 187.67383048 -163.26256098 182.90296652 -163.2668438 178.13207436 C-163.27165819 171.68934692 -163.2613293 165.24680713 -163.23988914 158.8041153 C-163.23438206 156.45697601 -163.23379906 154.10981847 -163.23884201 151.76267815 C-163.27219938 133.99317469 -162.65525761 115.89114992 -157.07739258 98.84863281 C-156.82062744 98.03507324 -156.5638623 97.22151367 -156.29931641 96.38330078 C-150.52283097 78.59693751 -142.0187344 63.40005521 -129.82739258 49.16113281 C-129.1184082 48.3296875 -128.40942383 47.49824219 -127.67895508 46.64160156 C-104.63962442 20.32826076 -72.16953318 3.89331372 -37.2627306 0.85039139 C-24.83930059 0.07725021 -12.44455609 0.00577577 0 0 Z M-90.22094727 77.67675781 C-110.90820947 101.4049427 -115.30730263 130.12052003 -115.21557617 160.56713867 C-115.21965107 162.86406197 -115.22499806 165.16098331 -115.23150635 167.457901 C-115.24507728 173.64391368 -115.23992365 179.82977473 -115.23036909 186.01578975 C-115.2227182 192.52245762 -115.22983315 199.02911342 -115.23452759 205.53578186 C-115.24031738 217.15661913 -115.23105461 228.77738788 -115.21574958 240.39821435 C-115.20235279 250.89433491 -115.20467604 261.39035585 -115.21850586 271.88647461 C-115.23462953 284.12891654 -115.24049964 296.3712877 -115.23166907 308.61374003 C-115.22701871 315.07458385 -115.22629436 321.53535936 -115.23627853 327.99619865 C-115.24501699 334.07441007 -115.23880199 340.1524355 -115.22159576 346.23062706 C-115.2176672 348.44637495 -115.21870169 350.6621388 -115.22538376 352.8778801 C-115.3070045 382.72031294 -110.76091564 412.42563981 -89.82739258 435.16113281 C-89.28856445 435.79148437 -88.74973633 436.42183594 -88.19458008 437.07128906 C-71.37486934 455.62368357 -43.71436269 462.24065867 -19.82739258 464.16113281 C-12.32153131 464.51568313 -4.80324499 464.44558522 2.70898438 464.43579102 C4.93664723 464.44014747 7.16430859 464.44533369 9.39196777 464.45127869 C15.39831994 464.46457948 21.40460883 464.46525737 27.41097283 464.46271539 C32.44526485 464.4616396 37.47954438 464.46654448 42.5138337 464.47132081 C55.07859171 464.48301583 67.64331926 464.48220863 80.20807739 464.475764 C91.07419104 464.47059818 101.94021496 464.4818485 112.80631087 464.50086222 C124.01324654 464.52031923 135.22014967 464.52819273 146.42710465 464.52473897 C152.6990731 464.5229354 158.97095934 464.52546912 165.2429142 464.53945351 C171.1454447 464.55212384 177.04779692 464.55000154 182.95032501 464.53704262 C185.10157268 464.53469721 187.25283326 464.53733728 189.40406609 464.54566574 C220.66699083 464.65785975 251.44611026 458.95100984 274.85229492 436.60253906 C300.77871399 409.45466256 303.31557739 373.26326771 303.33374023 337.75390625 C303.33837814 335.62343766 303.34340408 333.49296989 303.3487854 331.36250305 C303.36181416 325.61230718 303.3683351 319.86212293 303.37279606 314.11191463 C303.37574109 310.50990331 303.3798484 306.90789507 303.38430023 303.30588531 C303.39794748 292.007811 303.40762875 280.70974384 303.41150212 269.41166186 C303.415982 256.42086008 303.43353843 243.43016356 303.46250272 230.43939376 C303.48418572 220.36077976 303.49420986 210.28219526 303.49554324 200.20355821 C303.49658614 194.20041986 303.5023841 188.19738083 303.52036285 182.19426727 C303.53695946 176.54375248 303.53894333 170.89341049 303.53022385 165.24287987 C303.52945975 163.18312552 303.53371205 161.12336142 303.5436821 159.06363106 C303.67328702 130.59247971 298.60776667 102.1178197 279.17260742 80.16113281 C277.99891602 78.69160156 277.99891602 78.69160156 276.80151367 77.19238281 C260.98248257 58.20234548 234.7611629 50.48984097 211.17260742 48.16113281 C203.43596478 47.67825418 195.68661819 47.74906445 187.93847656 47.77294922 C185.68391162 47.76887245 183.42934867 47.76352443 181.17478943 47.75701904 C175.11272275 47.74347027 169.05081112 47.74859236 162.98874211 47.7581563 C156.60580774 47.76581893 150.22288553 47.75868905 143.83995056 47.7539978 C132.44152113 47.74821178 121.04317661 47.75746174 109.64476155 47.77277581 C99.35623884 47.78617195 89.06781776 47.78384863 78.77929688 47.77001953 C66.76974558 47.7538842 54.76027078 47.74803185 42.75070471 47.75685632 C36.41614087 47.76150139 30.08164667 47.76224595 23.74708748 47.75224686 C17.78703382 47.74349401 11.8271695 47.74974885 5.867136 47.76692963 C3.69737816 47.77085068 1.52760399 47.76983708 -0.64214706 47.76314163 C-33.29362982 47.67177995 -66.99802805 52.4195955 -90.22094727 77.67675781 Z " fill="#000000" transform="translate(162.827392578125,-0.1611328125)"/>
<path d="M0 0 C0.92554688 0.73992187 1.85109375 1.47984375 2.8046875 2.2421875 C3.34448242 2.66983398 3.88427734 3.09748047 4.44042969 3.53808594 C31.51958935 25.18003136 49.71971818 56.61215695 53.8046875 91.2421875 C54.11871598 96.40960426 54.19417314 101.56667689 54.1796875 106.7421875 C54.17947601 107.44262177 54.17926453 108.14305603 54.17904663 108.86471558 C54.14352831 120.69534526 53.05233368 131.83406309 49.8046875 143.2421875 C49.62276855 143.90911621 49.44084961 144.57604492 49.25341797 145.26318359 C39.87659439 178.89070194 15.94533383 206.68922938 -13.9453125 223.9921875 C-31.22615564 233.58489653 -51.39153651 239.56938566 -71.1953125 240.2421875 C-72.24332031 240.28214844 -73.29132813 240.32210938 -74.37109375 240.36328125 C-110.449339 241.0578794 -144.60492136 228.01731877 -171.00415039 203.40991211 C-196.26123964 179.1035182 -209.70957789 145.88179468 -211.4453125 111.17578125 C-212.08551253 73.44399184 -197.58490716 40.60245467 -172.1953125 13.2421875 C-171.66679687 12.64792969 -171.13828125 12.05367187 -170.59375 11.44140625 C-128.00583323 -34.31330433 -48.51812268 -37.00046744 0 0 Z M-143.66796875 54.015625 C-158.37217006 72.42740365 -164.28794327 94.99743602 -161.99316406 118.29443359 C-159.04667786 140.24853552 -147.34760586 159.35516298 -130.47265625 173.5234375 C-111.44513756 187.88382896 -88.73904115 194.0225969 -65.140625 190.73828125 C-56.99229888 189.28024743 -49.63638208 186.84469153 -42.1953125 183.2421875 C-41.27105469 182.80003906 -40.34679687 182.35789062 -39.39453125 181.90234375 C-20.15052554 172.07619656 -5.40445675 154.85245061 1.7734375 134.53125 C8.97883738 111.55039128 7.13707184 88.71047734 -3.86328125 67.32421875 C-15.45893375 46.22442404 -35.01344424 32.41791983 -57.62890625 25.13671875 C-90.08374302 16.99433921 -121.88472993 29.58260831 -143.66796875 54.015625 Z " fill="#000000" transform="translate(334.1953125,147.7578125)"/>
<path d="M0 0 C6.037705 6.55437902 8.61414235 14.14159254 8.4296875 23.0625 C7.64359064 31.54641331 4.3213149 38.3569175 -1.77734375 44.296875 C-10.93829604 51.00551083 -18.49639367 52.16751062 -29.77734375 51.296875 C-37.90261645 49.29865979 -44.12433785 43.7178563 -49.15234375 37.234375 C-53.58628877 29.2191667 -54.206076 20.2959269 -52.08984375 11.41015625 C-49.00959936 3.02932464 -44.73167717 -1.92038005 -36.83984375 -6.078125 C-23.64358853 -12.12640864 -10.50455724 -10.0659054 0 0 Z " fill="#000000" transform="translate(415.77734375,98.703125)"/>
</svg>
