<?xml version="1.0" encoding="UTF-8"?>
<svg version="1.1" xmlns="http://www.w3.org/2000/svg" width="1200" height="1200">
<path d="M0 0 C2.5532208 0.11364838 5.1064435 0.22725424 7.65966797 0.34082031 C24.77968545 1.11243598 41.89164302 2.00339982 59 3 C60.00025208 3.05822937 61.00050415 3.11645874 62.03106689 3.17645264 C114.43091361 6.25374852 166.76525266 10.866142 219 16 C220.0742926 16.10548157 221.14858521 16.21096313 222.25543213 16.31964111 C228.60164617 16.9456925 234.94583328 17.58870016 241.28811646 18.25341797 C243.21768854 18.45477499 245.1475896 18.65301161 247.07785034 18.84765625 C282.50612002 22.44105493 311.77462621 33.29027829 338 58 C338.60199219 58.54914063 339.20398437 59.09828125 339.82421875 59.6640625 C386.76297503 104.08628872 387.17339202 187.52338888 390.125 247.3125 C390.18291718 248.46922714 390.18291718 248.46922714 390.24200439 249.64932251 C390.54168071 255.76459738 390.77645976 261.88152373 391 268 C391.06565155 269.69524811 391.06565155 269.69524811 391.13262939 271.42474365 C392.23983488 300.86923201 392.15423761 330.32417462 392.12856925 359.78485554 C392.12479679 364.61764515 392.1261604 369.45041427 392.13037109 374.28320312 C392.15574193 404.20088965 392.15790893 434.10058534 391 464 C390.94329132 465.55216217 390.94329132 465.55216217 390.88543701 467.13568115 C390.67060044 472.98840979 390.41832005 478.83819606 390.125 484.6875 C390.08331696 485.52744507 390.04163391 486.36739014 389.99868774 487.23278809 C388.18599162 523.17211392 384.2892612 558.89635819 377.5 594.25 C377.29377014 595.33880966 377.29377014 595.33880966 377.08337402 596.44961548 C375.55989703 604.42010388 373.75757079 612.25913991 371.49609375 620.0546875 C371.30007568 620.73492981 371.10405762 621.41517212 370.90209961 622.11602783 C368.70392801 629.44093921 365.4650754 636.20163059 362 643 C361.27490234 644.46373047 361.27490234 644.46373047 360.53515625 645.95703125 C345.33111434 675.39643651 317.04872001 697.55206191 285.83935547 707.83227539 C270.12120556 712.7267074 254.00225486 714.33071787 237.6875 715.9375 C235.15626667 716.19394214 232.62509917 716.45103483 230.09399414 716.70874023 C223.63176002 717.36307306 217.1681489 718.00245535 210.70385742 718.6361084 C207.20524402 718.97983546 203.70705098 719.32751548 200.20898438 719.67675781 C184.81410619 721.21010963 169.41180388 722.64732369 154 724 C152.83770874 724.1020575 151.67541748 724.20411499 150.47790527 724.30926514 C100.39146954 728.67887192 50.21543694 731.58964661 0 734 C-0.75640778 734.03652176 -1.51281555 734.07304352 -2.29214478 734.110672 C-85.07411986 738.09357506 -168.97102573 738.11292094 -251.75030518 734.10868073 C-254.14842783 733.99282959 -256.5466233 733.87856226 -258.94482422 733.76434326 C-312.37918289 731.20764214 -365.71213124 727.70732564 -419 723 C-420.27558777 722.88742859 -421.55117554 722.77485718 -422.86541748 722.65887451 C-438.21579077 721.29776879 -453.5566234 719.85049816 -468.89019775 718.31182861 C-472.11590215 717.98837817 -475.34188073 717.66775258 -478.56787109 717.34716797 C-483.99784115 716.80573794 -489.4266122 716.25346591 -494.85461426 715.69265747 C-496.86911559 715.48508526 -498.88383859 715.27965031 -500.89880371 715.07662964 C-541.86554176 710.9288457 -576.30302036 696.35840139 -603 664 C-632.34194059 627.02915486 -636.45670507 575.35155476 -641 530 C-641.0937793 529.0807373 -641.18755859 528.16147461 -641.28417969 527.21435547 C-642.64241331 513.56582377 -643.37827851 499.88308294 -644.0625 486.1875 C-644.10279327 485.39648895 -644.14308655 484.60547791 -644.18460083 483.79049683 C-644.49934063 477.52856228 -644.75758918 471.26511608 -645 465 C-645.04483521 463.89368225 -645.08967041 462.7873645 -645.13586426 461.64752197 C-646.27573946 432.51930359 -646.15390058 403.37600493 -646.1285693 374.23062879 C-646.12479666 369.38584182 -646.12616018 364.54107529 -646.13037109 359.69628906 C-646.18040968 300.54935352 -646.18040968 300.54935352 -645 271 C-644.92618605 269.0193716 -644.85244958 267.03874031 -644.77880859 265.05810547 C-644.5900206 260.18300619 -644.36855647 255.31015049 -644.125 250.4375 C-644.08331696 249.5966687 -644.04163391 248.7558374 -643.99868774 247.88952637 C-642.16743546 211.53834448 -638.34304629 175.45368364 -631.5 139.6875 C-631.29377014 138.59214935 -631.29377014 138.59214935 -631.08337402 137.47467041 C-627.1410541 116.72949272 -620.8854671 96.62483715 -609 79 C-608.38382813 78.07703125 -607.76765625 77.1540625 -607.1328125 76.203125 C-587.95135312 48.66459825 -558.40001004 28.3483217 -525.24609375 22.04760742 C-517.9025022 20.73579433 -510.5017028 19.99247365 -503.0859375 19.23046875 C-501.53100386 19.06780755 -499.97609832 18.90487757 -498.42121887 18.74169922 C-494.26715643 18.30726114 -490.11248398 17.87896951 -485.95757675 17.45269394 C-483.36220416 17.18618605 -480.76697933 16.91827767 -478.17178345 16.65005493 C-448.10089865 13.54550204 -418.01533773 10.70189216 -387.88452148 8.23706055 C-385.21373041 8.01756515 -382.54333175 7.79391763 -379.87304688 7.56835938 C-345.49792454 4.67568303 -311.02794474 3.03036112 -276.5838623 1.19247437 C-273.57752568 1.03101651 -270.57142338 0.86617546 -267.56542969 0.69848633 C-178.70957994 -4.22379139 -88.88775636 -4.06617892 0 0 Z M-231.375 214.75 C-237.68338532 224.1688911 -238.15066738 233.84009155 -238.13371277 244.8661499 C-238.13597833 245.95059458 -238.13824388 247.03503926 -238.14057809 248.1523459 C-238.14690092 251.78093678 -238.14608982 255.40949016 -238.14526367 259.03808594 C-238.14825624 261.64192757 -238.151659 264.24576877 -238.15544128 266.84960938 C-238.16373439 273.18571369 -238.16649552 279.5218087 -238.16705366 285.85791799 C-238.16752949 291.01069026 -238.16958756 296.16345947 -238.17275429 301.31623077 C-238.18155745 315.93893555 -238.18617423 330.561633 -238.18542381 345.18434045 C-238.18538386 345.97203349 -238.1853439 346.75972653 -238.18530273 347.57128906 C-238.18526185 348.35994867 -238.18522097 349.14860827 -238.18517885 349.96116665 C-238.18477255 362.73762588 -238.19433904 375.51405563 -238.2084411 388.29050633 C-238.22282089 401.42265726 -238.22971039 414.55479383 -238.22884732 427.68695283 C-238.22851589 435.05425147 -238.23123929 442.4215192 -238.24202538 449.78881073 C-238.25210768 456.71958987 -238.25177865 463.65030282 -238.24450874 470.58108521 C-238.24346413 473.12108709 -238.24581846 475.66109306 -238.2518692 478.20108795 C-238.25960945 481.67610673 -238.25493069 485.15090142 -238.24723816 488.62591553 C-238.25238172 489.62409168 -238.25752529 490.62226783 -238.26282471 491.65069175 C-238.20315338 503.901672 -236.45284465 514.54715535 -227.5 523.5 C-221.06540369 527.36075779 -214.37435296 527.97443858 -207 527 C-198.40641828 524.56879953 -190.72740765 520.40455923 -182.9375 516.125 C-181.71117922 515.45848378 -180.48444541 514.79272698 -179.25732422 514.12768555 C-176.73814451 512.76131853 -174.22106989 511.391189 -171.70556641 510.01806641 C-167.10612791 507.50967712 -162.48954178 505.03343193 -157.87329102 502.55615234 C-148.00216814 497.25742558 -138.15662796 491.91294352 -128.32666016 486.53833008 C-120.12785304 482.05958537 -111.90061967 477.63437067 -103.671875 473.2109375 C-96.76829142 469.49739846 -89.87798891 465.76071292 -83 462 C-73.95890317 457.05717084 -64.891835 452.163823 -55.81689453 447.28344727 C-48.4967267 443.3461909 -41.18272772 439.39779765 -33.875 435.4375 C-32.88999512 434.90374756 -31.90499023 434.36999512 -30.89013672 433.82006836 C-25.97542225 431.15628505 -21.06163567 428.49079759 -16.1484375 425.82421875 C-14.18235314 424.75769918 -12.21620697 423.69129353 -10.25 422.625 C-9.27087646 422.09382568 -8.29175293 421.56265137 -7.28295898 421.01538086 C-1.29970538 417.77386608 4.69645151 414.55764197 10.70236206 411.35830688 C21.42436778 405.64505174 32.12995479 399.90108204 42.75 394 C43.67176025 393.49662109 44.59352051 392.99324219 45.54321289 392.47460938 C53.83358229 387.82393312 62.11470652 382.04537682 66.3125 373.25 C67.64922195 366.93095078 66.83661219 361.16280238 63.26293945 355.66381836 C57.50772892 348.08180409 50.24061795 343.97499461 41.9375 339.5625 C40.65496905 338.86917778 39.37299739 338.1748201 38.09155273 337.47949219 C34.74129589 335.66617801 31.38279526 333.86879009 28.02087402 332.07720947 C26.03529574 331.01881409 24.0511113 329.95785388 22.06738281 328.89599609 C16.34070294 325.83135024 10.61007901 322.77426193 4.87391663 319.72740173 C-2.73864355 315.68293356 -10.31598659 311.57703616 -17.87670898 307.43652344 C-24.90063335 303.59217738 -31.94698084 299.79067533 -39 296 C-47.855098 291.24040104 -56.69106141 286.44790549 -65.50927734 281.62036133 C-70.71621958 278.77527752 -75.93709634 275.95757811 -81.171875 273.1640625 C-81.78970856 272.83415817 -82.40754211 272.50425385 -83.0440979 272.16435242 C-86.06397626 270.55233949 -89.08528618 268.94316449 -92.10888672 267.33813477 C-98.6280932 263.86302057 -105.03912459 260.2511661 -111.40478516 256.50268555 C-114.33718527 254.80476243 -117.31878191 253.27506013 -120.375 251.8125 C-127.37836514 248.36445371 -134.21693086 244.65025687 -141.06005859 240.89575195 C-149.44442161 236.29602672 -157.86004366 231.7564242 -166.2878418 227.23681641 C-171.61832478 224.37442224 -176.93495501 221.49156632 -182.22265625 218.55078125 C-183.70088867 217.7319043 -183.70088867 217.7319043 -185.20898438 216.89648438 C-187.04587622 215.8768271 -188.87949717 214.85124329 -190.70898438 213.81835938 C-203.41655597 206.77834496 -220.69623126 201.45388598 -231.375 214.75 Z " fill="#000000" transform="translate(727,233)"/>
</svg>
